<svg width="53" height="53" viewBox="0 0 53 53" fill="none" xmlns="http://www.w3.org/2000/svg">
<path fill-rule="evenodd" clip-rule="evenodd" d="M25.1011 0.148455C23.922 0.397482 22.772 1.01544 21.8518 1.89444C21.4013 2.32478 20.8973 2.93104 20.6954 3.28558C20.3701 3.85643 20.2683 3.94755 19.5821 4.282C17.6165 5.2399 16.2956 7.26432 16.1743 9.50463C16.0108 12.5266 17.9354 15.1202 20.9057 15.8806C21.4064 16.0088 21.8546 16.0398 22.6662 16.0023C23.6956 15.9548 24.1437 15.8445 25.2824 15.3584C25.4498 15.2869 25.4636 15.3872 25.4636 16.6798V18.0786L24.8163 18.1456C21.7982 18.4579 19.5324 19.0909 17.0234 20.3228C16.283 20.6863 15.2872 21.2456 14.8107 21.5656C14.3341 21.8857 13.9322 22.1335 13.9174 22.1165C13.5812 21.7266 12.2079 19.9468 12.2079 19.9007C12.2079 19.8656 12.4321 19.5017 12.706 19.0921C13.4305 18.009 13.7095 17.0708 13.7095 15.7174C13.7095 14.3621 13.4304 13.4256 12.7022 12.3368C11.8681 11.0899 10.6979 10.2328 9.30818 9.85068C8.83056 9.71939 8.45805 9.52358 8.02558 9.17639C5.37692 7.04998 1.4903 8.12447 0.308059 11.3098C-0.299944 12.9478 0.0178827 14.7379 1.16844 16.1568C1.43304 16.4832 1.6589 16.8983 1.73253 17.1938C2.62439 20.7735 6.65569 22.7841 10.0331 21.3336L10.4991 21.1334L11.4058 22.28L12.3125 23.4267L11.394 24.361C9.71579 26.0682 8.46717 27.7592 7.53108 29.5925L7.08163 30.4726L7.02923 28.9712C6.98449 27.6908 6.94255 27.4001 6.74392 26.996C6.36582 26.2268 5.83953 25.6965 5.08592 25.3256C4.46622 25.0205 4.30073 24.9848 3.51097 24.9857C2.82623 24.9865 2.51907 25.0371 2.14004 25.2114C1.45603 25.5259 0.663271 26.3034 0.325561 26.9909L0.0395268 27.5734L0.00566251 31.2492C-0.0460141 36.8636 0.238259 38.7104 1.59656 41.5848C2.74546 44.0164 3.35563 44.7722 7.6916 49.1359C11.7004 53.1703 11.7293 53.193 12.3994 52.8466C12.7956 52.6418 12.9328 52.3963 12.9328 51.8923C12.9328 51.5181 12.787 51.3552 9.37912 47.9249C7.42452 45.9575 5.6381 44.1148 5.40913 43.83C3.94303 42.0066 2.88889 39.7795 2.35586 37.379C2.15288 36.4653 2.12906 36.0009 2.09116 32.2329C2.05067 28.2081 2.05543 28.0816 2.26038 27.7536C2.70237 27.0464 3.48115 26.826 4.21197 27.2011C4.95833 27.5842 4.95864 27.586 4.95864 31.5786C4.95864 33.536 5.0068 35.5219 5.06573 35.9916C5.19155 36.9947 5.60859 38.2362 6.10464 39.084C6.59127 39.9158 13.4588 46.8472 13.89 46.9419C14.7282 47.126 15.3713 46.2319 14.9591 45.4557C14.8773 45.3019 13.453 43.8248 11.7936 42.1733C10.1343 40.5217 8.70453 39.0342 8.61629 38.8678C8.40783 38.4745 8.41114 37.6878 8.62302 37.2782C8.98186 36.5843 9.79295 36.2165 10.6228 36.3712C10.963 36.4347 11.3816 36.8076 13.679 39.0929L16.3412 41.7412L17.4772 41.879C19.5363 42.1289 21.0186 42.853 22.3663 44.2671C23.9672 45.947 24.8988 47.815 25.3092 50.1681C25.3941 50.6551 25.4636 51.3317 25.4636 51.6716C25.4636 52.2365 25.4939 52.32 25.8157 52.6418C26.2934 53.1194 26.705 53.1194 27.1827 52.6418C27.5045 52.32 27.5348 52.2365 27.5348 51.6716C27.5348 49.6472 28.416 47.0762 29.7063 45.336C31.252 43.2511 33.0555 42.1783 35.5164 41.8796L36.6572 41.7412L39.3194 39.0929C41.6168 36.8076 42.0354 36.4347 42.3756 36.3712C43.2055 36.2165 44.0165 36.5843 44.3754 37.2782C44.5873 37.6878 44.5906 38.4745 44.3821 38.8678C44.2939 39.0342 42.8205 40.568 41.1079 42.2762C37.7829 45.5928 37.7123 45.6859 37.9971 46.3735C38.0687 46.5461 38.266 46.7591 38.4358 46.8469C39.0892 47.1848 39.144 47.1417 42.9703 43.2858C46.7717 39.455 47.0028 39.1704 47.5364 37.6628C47.962 36.4602 48.0398 35.52 48.0398 31.5748C48.0398 28.1834 48.0498 27.9957 48.2485 27.6742C48.6541 27.018 49.587 26.8126 50.2251 27.2389C50.9253 27.7065 50.9391 27.7926 50.9392 31.6661C50.9394 34.9719 50.868 36.2506 50.6183 37.4102C50.383 38.5029 49.9678 39.7307 49.4715 40.8015C48.887 42.0625 48.8769 42.3504 49.4016 42.7918C49.76 43.0933 50.0925 43.1219 50.5416 42.8896C51.0967 42.6026 52.2109 39.9325 52.6356 37.8714C52.9636 36.2797 53.0253 35.1513 52.992 31.3528L52.9589 27.5734L52.6728 26.9909C52.3351 26.3034 51.5424 25.5259 50.8584 25.2114C50.4793 25.0371 50.1722 24.9865 49.4874 24.9857C48.6977 24.9848 48.5322 25.0205 47.9125 25.3256C47.1589 25.6965 46.6326 26.2268 46.2545 26.996C46.0559 27.4001 46.0139 27.6908 45.9692 28.9712L45.9168 30.4726L45.4737 29.615C44.5208 27.77 43.351 26.1647 41.7575 24.5156L40.6946 23.4157L41.597 22.2746L42.4993 21.1334L42.9653 21.3336C46.3427 22.7841 50.374 20.7735 51.2659 17.1938C51.3395 16.8983 51.5654 16.4832 51.83 16.1568C52.9805 14.7379 53.2984 12.9478 52.6903 11.3098C51.4973 8.09527 47.6062 7.04066 44.9312 9.20694C44.535 9.52773 44.1599 9.72249 43.6902 9.8512C42.3018 10.2318 41.1306 11.0895 40.2962 12.3368C39.568 13.4256 39.2889 14.3621 39.2889 15.7174C39.2889 17.0708 39.5679 18.009 40.2924 19.0921C40.5663 19.5017 40.7905 19.8656 40.7905 19.9007C40.7905 19.9467 39.533 21.5775 39.0858 22.1116C39.0737 22.126 38.6718 21.88 38.1926 21.5648C37.7133 21.2496 36.7154 20.6921 35.975 20.3258C33.4916 19.0974 31.2092 18.4589 28.1821 18.1456L27.5348 18.0786V16.6798C27.5348 15.3872 27.5486 15.2869 27.716 15.3584C28.8545 15.8444 29.3028 15.9548 30.3309 16.0022C32.2328 16.0898 33.7304 15.5139 35.0496 14.1873C37.0696 12.1559 37.4196 9.04914 35.9105 6.54437C35.4166 5.7247 34.3344 4.73822 33.4359 4.28873C32.7656 3.95355 32.6448 3.84535 32.3113 3.28164C31.7437 2.32229 30.5254 1.21684 29.4852 0.717231C28.0321 0.0193337 26.595 -0.167049 25.1011 0.148455ZM27.5822 2.20787C29.0057 2.57857 30.1106 3.48232 30.7903 4.83193C31.0996 5.44575 31.2325 5.60417 31.5506 5.73754C33.2396 6.44569 33.842 6.95286 34.4045 8.1399C34.7024 8.76863 34.7318 8.92115 34.7282 9.81527C34.725 10.5914 34.6741 10.9253 34.4864 11.398C34.1541 12.2351 33.2961 13.1361 32.4208 13.5669C31.7765 13.8841 31.665 13.9053 30.6438 13.9053C29.6871 13.9053 29.4847 13.8726 28.9847 13.6371C28.6714 13.4896 28.2599 13.2378 28.0704 13.0775L27.7258 12.7861L28.7672 11.7407C29.9104 10.5931 30.0611 10.2912 29.7704 9.72912C29.5666 9.33503 29.3197 9.194 28.8338 9.194C28.5423 9.194 28.3623 9.28615 27.9985 9.62133L27.5348 10.0488V8.22833C27.5348 6.24874 27.4738 5.96141 27.002 5.71745C26.4388 5.42628 25.8624 5.6049 25.5793 6.15845C25.5041 6.30549 25.4636 7.20934 25.4636 8.74026V11.0959L24.4938 10.145C23.5911 9.25996 23.4945 9.194 23.1014 9.194C22.5221 9.194 22.1558 9.51913 22.0775 10.103L22.018 10.5458L23.3266 11.8681C24.0463 12.5953 24.6351 13.2257 24.6351 13.2688C24.6351 13.312 24.3671 13.4728 24.0396 13.6263C23.5113 13.8738 23.3215 13.9053 22.3546 13.9053C21.3334 13.9053 21.2219 13.8841 20.5776 13.5669C19.7023 13.1361 18.8443 12.2351 18.512 11.398C18.3244 10.9253 18.2734 10.5914 18.2702 9.81527C18.2666 8.92115 18.296 8.76863 18.5939 8.1399C19.1564 6.95286 19.7588 6.44569 21.4478 5.73754C21.7659 5.60417 21.8988 5.44575 22.2081 4.83193C23.2606 2.74227 25.4777 1.65981 27.5822 2.20787ZM6.17237 10.4215C6.41274 10.5442 6.80885 10.8517 7.05264 11.1046C7.44171 11.5083 7.58607 11.5832 8.23384 11.7171C8.6397 11.8011 9.20472 11.9877 9.48941 12.1319C10.6645 12.7273 11.5461 14.0423 11.6541 15.3608C11.9521 18.9983 7.63982 21.1337 4.97604 18.6679C4.24107 17.9875 3.85324 17.2952 3.67077 16.3374C3.54318 15.6681 3.48105 15.5517 2.95941 15.005C1.81031 13.8003 1.76432 12.2711 2.84135 11.0734C3.46023 10.3852 4.13099 10.1097 5.0622 10.1612C5.48411 10.1845 5.89846 10.2816 6.17237 10.4215ZM49.0301 10.2995C49.7595 10.548 50.5605 11.3728 50.7755 12.0968C51.112 13.2295 50.8876 14.1153 50.039 15.005C49.5174 15.5517 49.4552 15.6681 49.3276 16.3374C49.1452 17.2952 48.7573 17.9875 48.0224 18.6679C46.0282 20.5139 42.9252 19.8809 41.6908 17.3763C41.3891 16.7641 41.3601 16.619 41.3601 15.7195C41.3601 14.833 41.3923 14.6659 41.6793 14.0603C42.2621 12.8305 43.3378 12.0111 44.749 11.7217C45.4153 11.585 45.5505 11.5155 45.9168 11.1214C46.7695 10.2039 47.8851 9.9094 49.0301 10.2995ZM30.2274 20.532C30.9394 20.6803 32.0112 20.9643 32.6093 21.1634C33.6737 21.5174 35.7713 22.4728 36.1821 22.7906L36.3892 22.9508L36.1821 23.0219C32.9441 24.134 30.8733 27.4979 31.3623 30.8513C31.5984 32.4704 32.4407 34.114 33.5635 35.1466C33.8198 35.3823 34.7755 36.0663 35.6874 36.6664C36.5991 37.2667 37.3714 37.8259 37.4033 37.9092C37.4407 38.0066 37.1366 38.3783 36.5503 38.9521C35.6872 39.7965 35.6153 39.8435 35.1857 39.8442C34.026 39.8461 31.9881 40.586 30.6611 41.487C29.3389 42.3847 27.8471 44.1392 27.006 45.7857C26.7557 46.2757 26.5277 46.6766 26.4992 46.6766C26.4707 46.6766 26.2427 46.2757 25.9924 45.7857C25.1599 44.1561 23.7959 42.538 22.4379 41.569C21.1185 40.6278 19.0221 39.8462 17.8115 39.8442C17.3763 39.8435 17.3131 39.8005 16.327 38.8339C15.7605 38.2786 15.2569 37.7504 15.2078 37.6602C15.0682 37.4036 15.2662 36.309 15.5674 35.6726C15.7303 35.3282 16.0748 34.8748 16.4244 34.5449C17.4746 33.5536 17.7615 33.2272 18.0539 32.69C19.166 30.647 18.6372 28.1873 16.7823 26.7748C15.936 26.1303 15.0791 25.8648 13.8453 25.8648C13.3332 25.8648 12.931 25.8227 12.9501 25.771C13.0062 25.6183 14.2576 24.5357 15.0479 23.9562C17.7234 21.994 20.6579 20.7953 23.9254 20.3294C25.6 20.0907 28.5656 20.1861 30.2274 20.532ZM40.0874 25.7872C42.3404 28.0296 43.9874 30.7099 44.9073 33.6308C45.0776 34.1718 45.2463 34.7392 45.2823 34.8918L45.3474 35.1689L44.7733 34.8233C44.0447 34.3847 43.3232 34.2116 42.4988 34.2777C41.5017 34.3578 40.7756 34.7433 39.8005 35.7103L38.9658 36.5381L38.7649 36.31C38.6544 36.1845 37.8188 35.5918 36.908 34.9929C35.9972 34.3941 35.0336 33.68 34.7667 33.406C33.8075 32.4212 33.2256 30.73 33.3791 29.373C33.6724 26.7811 35.8358 24.7514 38.3264 24.7314L39.021 24.7258L40.0874 25.7872ZM15.0581 28.1295C15.9398 28.53 16.551 29.4395 16.5551 30.3571C16.5595 31.3191 16.391 31.6305 15.2579 32.7546C14.4099 33.596 14.1307 33.9531 13.7926 34.6286C13.5628 35.0877 13.351 35.5285 13.3219 35.6083C13.2841 35.712 13.1397 35.6293 12.8161 35.3187C12.567 35.0795 12.0836 34.7533 11.7418 34.5939C11.2059 34.3437 10.9924 34.3038 10.1884 34.3038C9.3844 34.3038 9.17148 34.3436 8.63783 34.5934C8.29764 34.7527 7.933 34.9611 7.82747 35.0566C7.64407 35.2226 7.63879 35.2167 7.70651 34.9223C8.11868 33.1308 9.27867 30.4975 10.3849 28.8418L10.9902 27.9358L12.8159 27.938C14.3596 27.94 14.7059 27.9695 15.0581 28.1295ZM24.1061 30.1502C22.254 30.6866 20.891 32.2749 20.5862 34.252C20.416 35.3569 20.5205 37.1531 20.798 37.892C21.1014 38.6997 21.6484 39.3776 22.3766 39.8482C23.1234 40.3308 23.8278 40.5021 24.8533 40.4503C25.8008 40.4025 26.7419 39.9795 27.4008 39.3055C27.8334 38.8628 29.0729 36.7537 29.3665 35.9606C30.1548 33.8311 29.2114 31.4702 27.1691 30.4609C26.502 30.1313 26.2957 30.0804 25.4958 30.0484C24.9338 30.0259 24.4 30.0651 24.1061 30.1502ZM26.2987 32.3623C26.9666 32.7009 27.3905 33.2591 27.5221 33.973C27.6547 34.6932 27.5095 35.1751 26.7431 36.5572C25.9015 38.0749 25.616 38.322 24.6465 38.3727C24.0414 38.4044 23.912 38.3758 23.5314 38.1255C23.2945 37.9696 22.9916 37.6519 22.8582 37.4191C22.6363 37.0319 22.6159 36.8773 22.6184 35.5981C22.6209 34.3811 22.6502 34.14 22.8453 33.7343C23.5426 32.2844 25.0016 31.7047 26.2987 32.3623ZM46.8289 44.8147C46.4977 44.9481 46.2374 45.4057 46.2495 45.833C46.2637 46.3331 46.747 46.7811 47.2727 46.7811C47.7882 46.7811 48.2469 46.3185 48.2469 45.7985C48.2469 45.3132 48.1074 45.0611 47.7311 44.8665C47.3941 44.6922 47.1655 44.6791 46.8289 44.8147ZM41.8037 49.7614C40.1678 51.3969 40.0656 51.5222 40.0656 51.8908C40.0656 52.3961 40.2026 52.6416 40.5991 52.8466C41.2103 53.1626 41.4356 53.0249 43.1946 51.2593C44.0881 50.3624 44.8635 49.5097 44.9175 49.3644C45.1543 48.7276 44.6298 48.0236 43.9187 48.0236C43.5691 48.0236 43.4154 48.1498 41.8037 49.7614Z" fill="white"/>
</svg>
