<svg width="64" height="64" viewBox="0 0 448 480" fill="none" xmlns="http://www.w3.org/2000/svg">
<path fill-rule="evenodd" clip-rule="evenodd" d="M213.404 1.51567C206.823 3.86867 200.979 8.54467 197.171 14.5027C186.811 30.7107 193.197 52.4567 210.664 60.4527L216 62.8967V79.6557V96.4137L212.427 97.5107C210.462 98.1137 198.161 104.49 185.092 111.679C172.023 118.868 161.03 124.75 160.665 124.75C160.299 124.75 160 117.485 160 108.605V92.4597L149.944 82.2407L139.887 72.0207L142.05 65.6357C147.308 50.1107 140.172 33.3937 125.142 26.0247C117.756 22.4037 106.111 22.1507 98.824 25.4527C92.236 28.4377 85.515 34.9997 82.275 41.6077C79.955 46.3417 79.509 48.5377 79.509 55.2497C79.509 61.9617 79.955 64.1577 82.275 68.8917C89.65 83.9337 106.36 91.0577 121.912 85.7907L128.324 83.6187L136.162 91.4107L144 99.2027V116.9V134.596L132.005 141.247C116.65 149.761 114.285 153.029 119.073 159.115C123.15 164.299 124.489 163.754 171.686 137.67C219.196 111.413 222.045 110.211 230.295 112.927C238.273 115.553 324.057 163.615 328.715 168.069C336.156 175.181 336 173.651 336 239.75C336 305.409 336.063 304.76 329.027 311.643C324.596 315.977 236.276 365.149 229.822 366.875C221.279 369.16 219.327 368.311 169.451 340.63C143.628 326.299 121.206 313.375 119.624 311.911C118.041 310.448 115.678 307 114.372 304.25L111.997 299.25L112.047 237.25L112.097 175.25L109.493 173C105.938 169.929 102.445 170.151 98.923 173.673C96.207 176.389 96 177.132 96 184.173V191.75H79.573H63.147L60.703 186.414C57.698 179.849 52.583 174.604 45.717 171.048C41.282 168.751 39.226 168.339 32 168.298C21.875 168.241 16.144 170.554 9.196 177.501C2.65 184.047 0.52 189.511 0.52 199.75C0.52 209.98 2.651 215.455 9.17 221.97C15.895 228.691 21.914 231.185 31.5 231.219C38.081 231.243 40.491 230.784 45.086 228.629C52.148 225.319 57.577 219.916 60.703 213.086L63.147 207.75H79.573H96V239.75V271.75H79.573H63.147L60.703 266.414C57.698 259.849 52.583 254.604 45.717 251.048C41.282 248.751 39.226 248.339 32 248.298C21.875 248.241 16.144 250.554 9.196 257.501C2.65 264.047 0.52 269.511 0.52 279.75C0.52 289.98 2.651 295.455 9.17 301.97C15.895 308.691 21.914 311.185 31.5 311.219C38.081 311.243 40.491 310.784 45.086 308.629C52.148 305.319 57.577 299.916 60.703 293.086L63.147 287.75H79.573H96V293.54C96 300.789 98.259 309.629 101.544 315.234C105.717 322.356 112.709 327.872 128.75 336.698L144 345.088V362.693V380.297L136.11 388.14L128.22 395.984L122.86 394.146C114.276 391.202 105.583 391.696 97.703 395.575C78.067 405.242 73.342 430.022 88.064 446.13C94.942 453.655 101.014 456.211 112 456.205C118.872 456.202 121.407 455.755 125.236 453.872C140.28 446.474 147.376 429.59 142.05 413.864L139.887 407.479L149.944 397.259L160 387.04V370.895C160 362.015 160.338 354.756 160.75 354.763C161.162 354.771 172.075 360.632 185 367.788C197.925 374.944 210.188 381.309 212.25 381.932L216 383.067V399.835V416.603L210.664 419.047C204.099 422.052 198.854 427.167 195.298 434.033C192.994 438.481 192.591 440.503 192.565 447.75C192.529 457.868 194.87 463.666 201.78 470.58C208.295 477.099 213.77 479.23 224 479.23C234.23 479.23 239.705 477.099 246.22 470.58C253.13 463.666 255.471 457.868 255.435 447.75C255.409 440.503 255.006 438.481 252.702 434.033C249.146 427.167 243.901 422.052 237.336 419.047L232 416.603V399.835V383.067L235.75 381.929C237.813 381.304 249.798 375.12 262.385 368.188C274.971 361.256 285.884 355.348 286.635 355.06C287.754 354.63 288 357.466 288 370.788V387.04L298.056 397.259L308.113 407.479L305.95 413.864C300.692 429.389 307.828 446.106 322.858 453.475C330.244 457.096 341.889 457.349 349.176 454.047C355.764 451.062 362.485 444.5 365.725 437.892C368.045 433.158 368.491 430.962 368.491 424.25C368.491 417.538 368.045 415.342 365.725 410.608C358.35 395.566 341.64 388.442 326.088 393.709L319.676 395.881L311.838 388.089L304 380.297V362.693V345.088L319.25 336.691C327.637 332.073 336.388 326.562 338.695 324.445C347.293 316.557 352 305.624 352 293.54V287.75H368.427H384.853L387.297 293.086C390.302 299.651 395.417 304.896 402.283 308.452C406.731 310.756 408.753 311.159 416 311.185C426.011 311.22 431.915 308.881 438.552 302.248C445.168 295.637 447.502 289.761 447.49 279.75C447.478 269.52 445.342 264.038 438.83 257.53C431.916 250.62 426.118 248.279 416 248.315C408.753 248.341 406.731 248.744 402.283 251.048C395.417 254.604 390.302 259.849 387.297 266.414L384.853 271.75H368.427H352V239.75V207.75H368.427H384.853L387.297 213.086C390.302 219.651 395.417 224.896 402.283 228.452C406.731 230.756 408.753 231.159 416 231.185C426.118 231.221 431.916 228.88 438.83 221.97C445.349 215.455 447.48 209.98 447.48 199.75C447.48 189.52 445.349 184.045 438.83 177.53C431.916 170.62 426.118 168.279 416 168.315C408.753 168.341 406.731 168.744 402.283 171.048C395.417 174.604 390.302 179.849 387.297 186.414L384.853 191.75H368.427H352V185.96C352 178.711 349.741 169.871 346.456 164.266C342.252 157.091 335.237 151.553 319.25 142.785L304 134.421V116.812V99.2027L311.89 91.3597L319.78 83.5157L325.14 85.3537C332.983 88.0437 342.158 87.7507 349.046 84.5917C356.886 80.9947 361.465 76.5817 365.175 69.0467C371.12 56.9697 369.132 43.4327 359.936 33.3697C354.132 27.0197 347.232 23.6987 338.361 22.9867C315.565 21.1567 298.494 43.6197 305.95 65.6357L308.113 72.0207L298.056 82.2407L288 92.4597V108.712C288 122.976 287.811 124.891 286.451 124.37C285.599 124.043 275.136 118.354 263.201 111.728C251.265 105.103 239.363 98.9167 236.75 97.9807L232 96.2807V79.5887V62.8967L237.336 60.4527C244.166 57.3267 249.569 51.8977 252.879 44.8357C256.522 37.0667 256.571 25.5617 252.994 18.2497C249.846 11.8167 243.157 5.15067 237.196 2.50767C230.637 -0.400328 220.003 -0.843327 213.404 1.51567ZM230.329 17.1137C240.603 21.4067 243.108 34.8767 235.118 42.8677C228.631 49.3537 219.369 49.3537 212.882 42.8677C200.516 30.5007 214.161 10.3587 230.329 17.1137ZM118.329 41.1137C128.603 45.4067 131.108 58.8767 123.118 66.8677C116.631 73.3537 107.369 73.3537 100.882 66.8677C88.516 54.5007 102.161 34.3587 118.329 41.1137ZM342.329 41.1137C352.603 45.4067 355.108 58.8767 347.118 66.8677C340.631 73.3537 331.369 73.3537 324.882 66.8677C312.516 54.5007 326.161 34.3587 342.329 41.1137ZM0 127.75V143.75H16H32V127.75V111.75H16H0V127.75ZM38.329 185.114C48.603 189.407 51.108 202.877 43.118 210.868C36.631 217.354 27.369 217.354 20.882 210.868C8.516 198.501 22.161 178.359 38.329 185.114ZM422.329 185.114C432.682 189.44 435.091 202.659 427 210.75C420.385 217.365 411.428 217.413 404.882 210.868C392.516 198.501 406.161 178.359 422.329 185.114ZM130.455 202.205L128 204.659V239.75V274.841L130.455 277.295C133.434 280.274 137.852 280.5 141.139 277.84C143.459 275.964 143.509 275.55 144 254.168L144.5 232.405L160.783 254.111C169.739 266.049 177.952 276.702 179.033 277.783C181.78 280.53 186.532 280.309 189.545 277.295L192 274.841V239.75V204.659L189.545 202.205C186.566 199.226 182.148 199 178.861 201.66C176.541 203.536 176.491 203.95 176 225.332L175.5 247.095L159.217 225.389C150.261 213.451 142.048 202.798 140.967 201.717C138.22 198.97 133.468 199.191 130.455 202.205ZM210.455 202.205L208 204.659V239.75V274.841L210.455 277.295C212.002 278.843 214.052 279.75 216 279.75C217.948 279.75 219.998 278.843 221.545 277.295C223.91 274.931 224 274.344 224 261.295V247.75H237.545C250.594 247.75 251.181 247.66 253.545 245.295C256.793 242.048 256.793 237.452 253.545 234.205C251.181 231.84 250.594 231.75 237.545 231.75H224V223.75V215.75H237.545C250.594 215.75 251.181 215.66 253.545 213.295C255.093 211.748 256 209.698 256 207.75C256 205.802 255.093 203.752 253.545 202.205C251.111 199.77 250.936 199.75 232 199.75C213.064 199.75 212.889 199.77 210.455 202.205ZM274.455 202.205C272.907 203.752 272 205.802 272 207.75C272 212.856 275.782 215.75 282.455 215.75H288V245.295V274.841L290.455 277.295C292.002 278.843 294.052 279.75 296 279.75C297.948 279.75 299.998 278.843 301.545 277.295L304 274.841V245.295V215.75H309.545C316.218 215.75 320 212.856 320 207.75C320 205.802 319.093 203.752 317.545 202.205C315.111 199.77 314.936 199.75 296 199.75C277.064 199.75 276.889 199.77 274.455 202.205ZM38.329 265.114C48.603 269.407 51.108 282.877 43.118 290.868C31.883 302.103 13.472 292.04 16.428 276.279C18.195 266.865 29.151 261.279 38.329 265.114ZM422.329 265.114C432.603 269.407 435.108 282.877 427.118 290.868C415.883 302.103 397.472 292.04 400.428 276.279C402.195 266.865 413.151 261.279 422.329 265.114ZM408 399.75V415.75H424H440V399.75V383.75H424H408V399.75ZM118.329 409.114C128.603 413.407 131.108 426.877 123.118 434.868C116.631 441.354 107.369 441.354 100.882 434.868C88.516 422.501 102.161 402.359 118.329 409.114ZM342.329 409.114C352.603 413.407 355.108 426.877 347.118 434.868C335.883 446.103 317.472 436.04 320.428 420.279C322.195 410.865 333.151 405.279 342.329 409.114ZM230.329 433.114C240.603 437.407 243.108 450.877 235.118 458.868C223.883 470.103 205.472 460.04 208.428 444.279C210.195 434.865 221.151 429.279 230.329 433.114Z" fill="#00c7fd"/>
</svg>
