<svg width="64" height="64" viewBox="0 0 480 480" fill="none" xmlns="http://www.w3.org/2000/svg">
<path fill-rule="evenodd" clip-rule="evenodd" d="M22.2871 1.37255C-0.304897 8.80155 -7.5249 37.6626 9.0611 54.2396C15.7861 60.9606 21.8051 63.4546 31.3911 63.4886C37.9721 63.5126 40.3821 63.0535 44.9771 60.8985C52.0451 57.5855 57.4681 52.1846 60.6031 45.3376L63.0551 39.9816L85.2231 40.2505L107.391 40.5196L112.401 50.0196C115.157 55.2446 120.2 64.7676 123.609 71.1816L129.805 82.8436L124.598 86.7756C107.308 99.8306 93.3261 114.703 80.7521 133.414C44.0871 187.971 38.0141 258.081 64.7601 318.022C77.2531 346.018 98.3121 373.035 121.641 390.993C126.178 394.486 129.872 397.608 129.849 397.932C129.826 398.255 124.763 407.97 118.598 419.52L107.389 440.52L85.3481 440.789L63.3061 441.057L61.9571 437.289C52.4861 410.835 15.5521 408.646 3.1971 433.806C0.785102 438.718 0.393102 440.713 0.405102 448.02C0.417102 455.328 0.803102 457.251 3.1551 461.737C9.2341 473.327 19.2061 479.466 31.8911 479.425C37.4921 479.407 40.7081 478.82 44.5931 477.108C50.7171 474.409 59.0061 466.108 60.9521 460.728L62.2931 457.02H88.1581C103.218 457.02 114.791 456.609 115.862 456.035C116.874 455.494 120.054 450.656 122.928 445.285C125.803 439.914 131.687 428.96 136.003 420.942L143.852 406.365L156.18 412.473C208.927 438.606 271.142 438.639 324.499 412.562L336.992 406.457L340.816 413.488C342.919 417.356 349.008 428.736 354.345 438.777C359.683 448.819 364.885 457.482 365.905 458.027C366.99 458.608 378.146 459.02 392.805 459.02H417.85L419.877 462.993C422.641 468.411 427.927 473.486 434.174 476.722C438.609 479.019 440.665 479.431 447.891 479.472C455.807 479.517 456.837 479.274 462.891 475.941C485.536 463.473 485.536 432.567 462.891 420.099C456.861 416.779 455.776 416.521 447.891 416.534C440.583 416.546 438.66 416.932 434.174 419.284C431.305 420.789 427.316 423.661 425.31 425.668C421.601 429.377 416.919 438.075 416.901 441.29C416.892 442.936 415.402 443.041 395.65 442.79L374.409 442.52L362.696 420.52C356.254 408.42 350.963 398.065 350.937 397.51C350.912 396.954 354.153 394.031 358.141 391.013C374.228 378.84 392.732 357.846 404.407 338.52C424.292 305.602 434.121 264.058 431.01 226.072C430.354 218.068 428.744 206.486 427.431 200.332C423.463 181.734 413.665 155.602 408.663 150.277C404.706 146.065 396.854 148.048 395.457 153.611C394.965 155.573 396.062 159.106 399.733 167.385C405.528 180.455 408.991 191.068 412.087 205.247C414.056 214.265 414.33 218.391 414.33 239.02C414.33 259.716 414.058 263.773 412.056 273.02C396.592 344.445 345.234 395.916 274.182 411.199C264.584 413.263 260.793 413.516 239.891 413.484C219.295 413.452 215.094 413.167 205.891 411.177C151.643 399.447 107.85 365.852 83.3991 317.211C44.0511 238.934 69.5041 143.218 142.784 93.8956C200.675 54.9306 276.765 54.3616 335.391 92.4546C350.154 102.047 366.232 116.843 377.41 131.123C381.571 136.438 386.235 137.349 390.502 133.678C394.143 130.547 394.079 126.344 390.308 120.892C385.649 114.158 368.901 97.1266 359.54 89.6036L350.933 82.6886L359.146 67.1036C363.664 58.5326 368.942 48.4855 370.875 44.7775L374.391 38.0345L395.406 38.0275L416.422 38.0196L418.161 42.9165C420.525 49.5735 427.684 57.2825 434.683 60.7055C446.182 66.3315 461.271 63.6396 470.616 54.2946C482.343 42.5676 482.94 23.3096 471.963 10.8386C460.694 -1.96345 441.507 -3.64945 428.059 6.98155C425.133 9.29455 422.124 12.9576 420.329 16.3916L417.391 22.0145L391.815 22.0176C366.56 22.0196 366.214 22.0476 364.217 24.2696C363.105 25.5066 356.661 36.9816 349.897 49.7696C343.133 62.5566 337.277 73.0196 336.885 73.0196C336.492 73.0196 330.145 70.1376 322.781 66.6156C293.042 52.3916 268.355 47.3236 233.601 48.3056C218.374 48.7356 211.903 49.3756 202.391 51.3886C185.582 54.9476 169.631 60.4066 155.302 67.5066L143.04 73.5816L130.369 49.7845C123.4 36.6955 116.872 25.5446 115.861 25.0036C114.793 24.4326 103.332 24.0196 88.5301 24.0196H63.0381L60.5941 18.6836C55.6321 7.84355 45.6741 1.13655 33.5011 0.43355C29.1291 0.18155 24.8111 0.542551 22.2871 1.37255ZM38.2201 17.3835C48.4941 21.6765 50.9991 35.1466 43.0091 43.1376C36.5221 49.6236 27.2601 49.6236 20.7731 43.1376C8.4071 30.7706 22.0521 10.6285 38.2201 17.3835ZM454.22 17.3835C464.573 21.7095 466.982 34.9286 458.891 43.0196C452.276 49.6346 443.319 49.6826 436.773 43.1376C424.407 30.7706 438.052 10.6285 454.22 17.3835ZM223.891 80.6366C198.803 83.7946 175.291 91.9056 155.391 104.268C117.134 128.032 90.6001 167.309 82.2611 212.52C79.6891 226.464 79.6821 253.705 82.2481 267.52C93.1391 326.16 133.399 372.818 189.388 391.685C207.031 397.63 218.884 399.451 239.891 399.443C259.45 399.435 268.15 398.286 284.391 393.567C342.319 376.735 385.012 329.833 397.098 269.748C400.291 253.871 400.301 226.482 397.118 210.517C384.106 145.237 335.174 96.0156 270.337 82.9866C260.631 81.0356 232.159 79.5956 223.891 80.6366ZM15.8911 112.02V128.02H31.8911H47.8911V112.02V96.0196H31.8911H15.8911V112.02ZM266.707 98.4906C318.297 108.608 360.528 145.947 376.842 195.869C382.101 211.962 383.351 220.631 383.283 240.52C383.234 254.971 382.804 260.429 381.104 268.203C374.636 297.771 362.159 320.848 341.439 341.568C320.719 362.288 297.642 374.765 268.074 381.233C255 384.092 226.705 384.341 213.621 381.711C184.294 375.816 159.219 362.444 138.343 341.568C117.384 320.609 104.075 295.644 98.2111 266.29C95.7771 254.105 95.7771 225.935 98.2111 213.75C107.928 165.106 140.246 125.457 185.301 106.906C195.582 102.673 210.635 98.5836 221.407 97.0996C231.165 95.7546 256.762 96.5406 266.707 98.4906ZM226.391 134.893C209.9 143.951 154.146 177.439 151.515 179.866C149.932 181.326 147.574 184.77 146.274 187.52L143.911 192.52V240.02V287.52L146.274 292.52C147.574 295.27 149.932 298.714 151.515 300.174C154.186 302.638 220.194 342.127 229.601 346.889C235.568 349.909 244.423 349.799 250.674 346.627C260.805 341.486 325.551 302.729 328.233 300.2C329.795 298.726 332.045 295.72 333.233 293.52C335.361 289.576 335.391 288.829 335.391 240.02C335.391 191.211 335.361 190.464 333.233 186.52C332.045 184.32 329.795 181.314 328.233 179.84C325.551 177.311 260.805 138.554 250.674 133.413C247.171 131.636 244.341 131.024 239.674 131.034C234.281 131.046 232.399 131.593 226.391 134.893ZM280.277 169.165C306.217 184.513 318.038 192.046 318.796 193.712C320.319 197.053 320.319 282.987 318.796 286.328C317.31 289.59 244.06 333.02 240.045 333.02C236.72 333.02 165.663 291.471 162.141 287.466L159.891 284.908V240.02V195.132L162.141 192.574C165.663 188.569 236.72 147.02 240.045 147.02C241.909 147.02 255.421 154.457 280.277 169.165ZM228.391 185.183C219.567 186.842 207.674 193.348 200.678 200.344C189.464 211.558 184.42 223.866 184.42 240.02C184.42 256.061 189.469 268.487 200.447 279.464C211.424 290.442 223.85 295.491 239.891 295.491C255.692 295.491 268.141 290.525 278.901 279.931C301.119 258.055 301.313 222.554 279.335 200.576C266.1 187.34 247.239 181.641 228.391 185.183ZM256.32 203.84C265.343 208.063 271.181 213.805 275.656 222.86C279.185 230 279.391 230.945 279.391 240.02C279.391 249.095 279.185 250.04 275.656 257.18C271.158 266.282 265.368 271.951 256.071 276.355C250.03 279.217 248.482 279.52 239.891 279.52C231.3 279.52 229.752 279.217 223.711 276.355C214.414 271.951 208.624 266.282 204.126 257.18C200.601 250.048 200.391 249.087 200.391 240.072C200.391 231.422 200.69 229.889 203.556 223.84C207.574 215.358 213.295 209.149 220.757 205.172C228.634 200.974 232.944 200.024 242.14 200.462C248.142 200.748 251.339 201.509 256.32 203.84ZM234.346 218.475C231.911 220.909 231.891 221.084 231.891 240.02C231.891 258.956 231.911 259.131 234.346 261.565C235.893 263.113 237.943 264.02 239.891 264.02C241.839 264.02 243.889 263.113 245.436 261.565C247.871 259.131 247.891 258.956 247.891 240.02C247.891 221.084 247.871 220.909 245.436 218.475C243.889 216.927 241.839 216.02 239.891 216.02C237.943 216.02 235.893 216.927 234.346 218.475ZM431.891 368.02V384.02H447.891H463.891V368.02V352.02H447.891H431.891V368.02ZM38.2201 433.384C48.4941 437.677 50.9991 451.147 43.0091 459.138C31.7741 470.373 13.3631 460.31 16.3191 444.549C18.0861 435.135 29.0421 429.549 38.2201 433.384ZM456.654 434.692C461.75 438.497 463.391 441.744 463.391 448.02C463.391 457.755 457.626 463.52 447.891 463.52C441.331 463.52 438.006 461.708 434.141 456.03C429.131 448.67 432.745 437.379 441.391 433.376C445.376 431.531 453.34 432.218 456.654 434.692Z" fill="#00c7fd"/>
</svg>
