<svg width="64" height="64" viewBox="0 0 459 512" fill="none" xmlns="http://www.w3.org/2000/svg">
<path fill-rule="evenodd" clip-rule="evenodd" d="M215.075 1.86979C204.477 4.64679 196.377 9.33579 188.35 17.3428C177.192 28.4728 171.528 42.1088 171.528 57.8478C171.528 73.5978 177.063 87.0238 188.215 98.3338C211.311 121.753 247.125 121.781 270.387 98.3978C281.889 86.8358 287.251 73.5138 287.1 56.8788C286.762 19.7728 250.998 -7.54121 215.075 1.86979ZM238.758 15.9078C264.974 21.9518 279.5 51.3238 268.335 75.7128C253.024 109.155 205.668 109.038 190.323 75.5198C175.785 43.7648 204.784 8.07478 238.758 15.9078ZM215.373 28.2908C212.623 29.6248 209.353 31.5408 208.106 32.5488L205.839 34.3818L211.275 39.7508L216.712 45.1198L219.427 42.9838C220.921 41.8088 222.73 40.8478 223.449 40.8478C225.996 40.8478 225.987 39.7258 223.346 28.0978C222.701 25.2588 221.571 25.2868 215.373 28.2908ZM235.408 27.0978C234.229 30.7598 232.934 39.1378 233.425 39.9318C233.736 40.4358 234.579 40.8478 235.297 40.8478C236.016 40.8478 237.824 41.8088 239.317 42.9828L242.031 45.1168L246.952 40.2698C249.659 37.6038 251.873 35.0058 251.873 34.4958C251.873 33.1318 249.019 31.0528 243.373 28.3028C237.732 25.5548 235.989 25.2918 235.408 27.0978ZM252.873 47.9248C248.93 49.6398 246.511 51.2628 246.723 52.0498C247.816 56.0988 246.911 63.0088 244.794 66.7748L242.484 70.8848L247.391 75.8658C250.09 78.6058 252.61 80.8478 252.991 80.8478C254.308 80.8478 259.902 71.4528 260.994 67.4068C262.476 61.9168 262.322 51.8908 260.699 48.1518L259.373 45.0978L252.873 47.9248ZM140.866 100.464C127.945 107.906 116.982 114.375 116.504 114.841C115.682 115.64 121.033 126.211 122.817 127.313C123.464 127.713 158.965 107.915 169.667 101.187L171.961 99.7448L168.767 94.0458C167.01 90.9118 165.3 88.0298 164.966 87.6408C164.632 87.2518 153.787 93.0228 140.866 100.464ZM290.523 93.1148C288.591 96.5428 287.317 99.6538 287.692 100.028C289.484 101.817 335.277 127.716 335.932 127.312C337.599 126.281 342.971 115.546 342.201 114.783C341.391 113.982 301.98 91.0128 296.705 88.2688C294.059 86.8928 294.007 86.9338 290.523 93.1148ZM44.3248 100.244C20.1948 106.106 2.14675 127.437 0.169751 152.431C-2.07225 180.772 18.1377 207.416 46.3727 213.344C55.2077 215.199 60.5618 215.197 69.3438 213.337C90.8748 208.776 108.562 192.115 113.859 171.404C117.565 156.911 116.324 144.859 109.695 130.976C102.568 116.049 87.8468 104.175 71.7698 100.385C64.1828 98.5968 51.3768 98.5308 44.3248 100.244ZM386.518 100.432C370.849 104.225 356.072 116.271 349.051 130.976C342.443 144.814 341.182 156.915 344.851 171.263C347.628 182.122 351.168 188.169 359.966 197.082C368.655 205.887 377.631 210.843 389.402 213.337C398.184 215.197 403.538 215.199 412.373 213.344C432.328 209.154 448.061 195.254 455.672 175.09C459.205 165.729 459.422 149.688 456.157 139.306C450.286 120.643 433.421 104.782 414.77 100.385C406.881 98.5258 394.306 98.5468 386.518 100.432ZM71.1718 115.859C83.2018 119.574 94.1838 130.115 98.4778 142.069C100.701 148.257 101.369 159.584 99.8848 165.957C95.8408 183.33 81.3538 196.58 63.6188 199.127C35.3538 203.185 10.8537 177.914 15.6927 149.693C20.1487 123.706 45.8438 108.036 71.1718 115.859ZM412.941 115.457C433.232 121.468 446.681 142.827 443.151 163.435C440.099 181.254 427.206 194.702 409.491 198.547C395.723 201.534 382.427 197.802 371.632 187.92C355.665 173.301 353.3 148.714 366.179 131.219C376.66 116.981 396.038 110.449 412.941 115.457ZM405.642 131.424L404.176 138.793L407.444 139.872C409.242 140.465 411.274 141.626 411.959 142.451C413.03 143.742 413.949 143.217 418.517 138.705C423.622 133.664 423.763 133.384 422.102 131.547C420.192 129.436 413.902 126.003 409.769 124.818C407.14 124.064 407.091 124.143 405.642 131.424ZM43.3727 127.008C41.1727 128.147 38.3497 130.015 37.0997 131.159L34.8278 133.239L40.0167 138.493L45.2048 143.747L47.9437 141.798C49.4497 140.725 51.1478 139.848 51.7178 139.848C53.7578 139.848 54.0557 137.617 52.8597 131.281C51.4677 123.903 50.3457 123.397 43.3727 127.008ZM62.8857 131.281C61.6467 137.844 61.9778 139.848 64.2968 139.848C65.0158 139.848 66.7158 140.723 68.0758 141.793L70.5488 143.739L75.9167 138.304C82.0217 132.121 82.0637 132.262 72.6557 127.324C65.2067 123.414 64.3007 123.781 62.8857 131.281ZM386.259 127.126C383.996 128.348 381.085 130.134 379.79 131.095L377.436 132.842L382.816 138.291L388.197 143.739L390.67 141.793C392.03 140.723 393.73 139.848 394.449 139.848C396.712 139.848 396.973 138.123 395.733 131.391C394.343 123.848 393.245 123.353 386.259 127.126ZM221.873 156.848V184.848H229.373H236.873V156.848V128.848H229.373H221.873V156.848ZM81.2377 146.65L75.1028 149.288L75.6188 154.986C76.0558 159.798 75.7457 161.381 73.6277 165.172L71.1188 169.659L76.4007 174.876L81.6827 180.092L84.7878 175.807C88.5608 170.598 90.8748 163.218 90.8668 156.416C90.8608 151.023 89.2448 143.793 88.0758 143.93C87.6888 143.976 84.6117 145.2 81.2377 146.65ZM424.155 146.563L417.938 149.174L418.494 154.761C418.963 159.469 418.658 161.076 416.555 164.975L414.06 169.601L419.396 174.871L424.732 180.14L427.837 175.244C431.32 169.753 433.873 162.128 433.873 157.216C433.873 153.036 431.915 143.832 431.04 143.9C430.673 143.929 427.575 145.127 424.155 146.563ZM218.373 198.804C200.546 202.678 185.136 214.539 177.522 230.246C166.463 253.059 170.622 278.469 188.359 296.463C202.654 310.963 223.154 316.934 242.77 312.311C258.576 308.585 274.049 296.266 281.033 281.848C285.681 272.254 287.197 265.515 287.1 254.879C286.82 224.185 262.708 199.483 231.873 198.299C226.648 198.098 220.573 198.325 218.373 198.804ZM240.413 214.4C266.063 221.079 279.437 250.144 267.993 274.341C258.901 293.566 237.026 303.181 216.728 296.873C191.757 289.113 179.488 261.183 190.665 237.542C199.612 218.619 220.069 209.103 240.413 214.4ZM214.131 226.877C205.143 231.368 205.076 231.629 211.323 237.799L216.712 243.12L219.427 240.984C220.921 239.809 222.73 238.848 223.449 238.848C225.996 238.848 225.987 237.726 223.346 226.098C222.675 223.145 221.381 223.254 214.131 226.877ZM235.408 225.098C234.229 228.76 232.934 237.138 233.425 237.932C233.736 238.436 234.579 238.848 235.297 238.848C236.016 238.848 237.824 239.809 239.317 240.983L242.031 243.117L246.952 238.27C249.659 235.604 251.873 233.006 251.873 232.496C251.873 231.132 249.019 229.053 243.373 226.303C237.732 223.555 235.989 223.292 235.408 225.098ZM393.107 256.098L393.373 284.348L400.623 284.642L407.873 284.936V256.392V227.848H400.357H392.842L393.107 256.098ZM252.873 245.925C248.93 247.64 246.511 249.263 246.723 250.05C247.818 254.107 246.91 261.009 244.785 264.791L242.466 268.917L247.682 274.133L252.898 279.348L255.359 276.348C261.259 269.157 263.993 253.746 260.711 246.182L259.373 243.098L252.873 245.925ZM140.837 298.39C127.944 305.835 116.993 312.328 116.501 312.82C115.804 313.517 120.371 323.4 122.47 325.738C122.79 326.095 139.163 316.883 162.653 303.129L171.933 297.696L168.753 292.022C167.004 288.901 165.282 286.012 164.926 285.601C164.57 285.19 153.73 290.945 140.837 298.39ZM290.45 291.098C287.356 296.562 287.103 297.493 288.445 298.497C291.456 300.752 335.979 326.075 336.299 325.715C336.479 325.513 338.092 322.73 339.883 319.531C341.955 315.83 342.791 313.366 342.183 312.758C341.25 311.825 294.991 284.848 294.325 284.848C294.14 284.848 292.396 287.661 290.45 291.098ZM45.3077 298.26C34.5837 300.712 26.1777 305.547 17.3327 314.348C4.58775 327.031 -0.929249 341.281 0.221751 358.547C1.80875 382.364 17.9167 403.08 40.3307 410.133C49.6447 413.063 66.6407 413.227 74.8727 410.466C92.8717 404.429 107.015 390.566 113.055 373.038C114.941 367.566 115.36 364.254 115.36 354.848C115.36 345.442 114.941 342.13 113.055 336.658C107.187 319.627 92.3767 304.903 75.9447 299.762C67.4767 297.113 53.3517 296.42 45.3077 298.26ZM386.22 298.833C377.659 301.078 373.302 303.215 365.529 308.985C351.749 319.214 342.873 337.049 342.873 354.509C342.873 364.628 344.397 371.034 349.101 380.678C363.057 409.297 398.102 420.954 427.081 406.617C435.995 402.207 448.355 389.6 452.737 380.447C463.891 357.148 459.478 332.115 440.988 313.808C426.051 299.018 406.21 293.593 386.22 298.833ZM67.0737 312.957C79.5667 315.57 91.2838 325.16 97.1718 337.589C100.141 343.858 100.373 345.109 100.373 354.848C100.373 364.867 100.207 365.691 96.7517 372.848C92.0667 382.553 85.5777 389.042 75.8727 393.727C68.6957 397.192 67.9207 397.347 57.8727 397.318C48.2187 397.29 46.8298 397.034 40.6348 394.136C22.7817 385.785 12.4238 366.775 15.6058 348.2C19.8128 323.637 42.8207 307.882 67.0737 312.957ZM411.338 313.381C432.732 318.953 446.801 340.124 443.176 361.291C440.149 378.958 427.178 392.858 409.982 396.86C393.246 400.756 373.779 392.583 364.285 377.677C356.918 366.108 355.865 349.872 361.678 337.451C370.705 318.16 391.321 308.167 411.338 313.381ZM44.9167 324.425C43.0167 325.25 39.9367 327.088 38.0727 328.509L34.6838 331.094L39.8647 336.34L45.0468 341.587L49.2097 339.467C51.4997 338.302 53.5578 337.238 53.7838 337.104C54.0098 336.969 53.6317 333.707 52.9427 329.854C51.5617 322.124 51.0377 321.77 44.9167 324.425ZM62.8027 329.854C62.1137 333.707 61.7357 336.969 61.9617 337.104C62.1877 337.238 64.2458 338.302 66.5358 339.467L70.6987 341.587L75.8808 336.34L81.0618 331.094L77.6637 328.502C74.0107 325.716 67.8388 322.848 65.4958 322.848C64.4968 322.848 63.6697 324.999 62.8027 329.854ZM386.204 325.37C383.42 326.757 380.32 328.802 379.313 329.914C377.52 331.896 377.582 332.033 382.471 336.922L387.458 341.909L391.915 339.629C394.367 338.374 396.532 337.264 396.725 337.162C396.919 337.06 396.51 333.798 395.815 329.912C394.357 321.754 393.897 321.537 386.204 325.37ZM405.875 328.598C405.249 331.761 404.654 334.887 404.555 335.547C404.455 336.206 406.486 337.82 409.069 339.133L413.764 341.521L418.913 336.307L424.062 331.094L420.664 328.502C416.999 325.707 410.837 322.848 408.476 322.848C407.496 322.848 406.64 324.741 405.875 328.598ZM81.9778 344.711L75.5837 347.443L75.4778 354.395C75.3958 359.844 74.8968 362.015 73.1728 364.432L70.9737 367.516L76.2757 372.752L81.5778 377.988L84.1478 374.934C89.9888 367.991 92.4337 354.734 89.5457 345.664L88.3727 341.979L81.9778 344.711ZM424.188 344.883L418.002 347.698L418.519 353.023C418.946 357.423 418.589 359.216 416.465 363.346L413.894 368.345L418.82 373.271C424.424 378.876 425.085 378.755 429.432 371.337C432.65 365.846 434.289 357.335 433.439 350.53C432.377 342.03 431.556 341.529 424.188 344.883ZM119.374 389.981C116.428 395.008 115.998 396.381 117.064 397.359C120.104 400.147 164.265 424.851 164.927 424.134C166.872 422.028 171.866 411.965 171.169 411.557C170.029 410.89 124.512 384.661 123.684 384.194C123.304 383.98 121.365 386.584 119.374 389.981ZM215.661 397.399C195.117 402.38 177.645 420.095 172.81 440.848C168.374 459.885 174.321 480.36 188.35 494.353C196.5 502.483 204.52 507.072 215.469 509.873C244.892 517.398 275.173 500.491 284.47 471.348C291.068 450.664 285.786 428.863 270.387 413.226C256.064 398.682 235.226 392.656 215.661 397.399ZM242.018 412.823C267.201 420.649 279.33 449.009 267.689 472.848C260.673 487.216 245.343 496.799 229.373 496.799C203.703 496.799 183.274 473.312 186.862 447.924C190.556 421.789 216.907 405.019 242.018 412.823ZM217.073 422.898C215.808 423.405 212.726 425.229 210.223 426.951L205.672 430.082L210.884 435.359L216.096 440.637L221.004 438.09C224.409 436.323 225.775 435.055 225.467 433.946C225.222 433.067 224.73 430.773 224.373 428.848C222.977 421.321 222.325 420.79 217.073 422.898ZM235.408 423.098C234.552 425.756 232.849 435.157 233.165 435.474C233.349 435.657 235.554 436.9 238.065 438.235L242.631 440.663L247.252 435.971C249.793 433.391 251.873 430.792 251.873 430.197C251.873 428.265 240.668 421.848 237.295 421.848C236.478 421.848 235.629 422.411 235.408 423.098ZM252.873 443.794C248.75 445.586 246.501 447.117 246.723 447.983C247.804 452.195 246.917 458.998 244.794 462.775L242.484 466.885L247.391 471.866C250.09 474.606 252.605 476.848 252.981 476.848C254.109 476.848 259.555 467.63 260.87 463.494C262.471 458.465 262.379 448.038 260.699 444.088L259.373 440.97L252.873 443.794Z" fill="#00c7fd"/>
</svg>
