<?xml version="1.0" standalone="no"?>
<!DOCTYPE svg PUBLIC "-//W3C//DTD SVG 20010904//EN"
 "http://www.w3.org/TR/2001/REC-SVG-20010904/DTD/svg10.dtd">
<svg version="1.0" xmlns="http://www.w3.org/2000/svg"
 width="64" height="64" viewBox="0 0 512.000000 512.000000"
 preserveAspectRatio="xMidYMid meet">

<g transform="translate(0.000000,512.000000) scale(0.100000,-0.100000)"
fill="#00c7fd" stroke="none">
<path d="M2360 5111 c-69 -22 -149 -90 -165 -140 -6 -20 -13 -21 -134 -21
-146 0 -201 -13 -260 -59 -61 -48 -91 -118 -91 -212 l0 -77 -46 -11 c-134 -34
-260 -136 -323 -262 -22 -44 -43 -95 -46 -113 -6 -31 -10 -34 -57 -39 -62 -8
-142 -44 -191 -86 -20 -18 -51 -63 -69 -99 l-33 -67 0 -300 0 -300 28 -57 c52
-105 150 -175 274 -194 39 -6 42 -8 53 -53 41 -165 203 -322 370 -360 62 -14
1718 -14 1780 0 167 38 329 195 370 360 11 45 14 47 53 53 124 19 222 89 274
194 l28 57 0 300 0 300 -26 56 c-50 106 -154 182 -267 196 -47 5 -51 8 -56 37
-3 18 -22 65 -41 105 -62 128 -194 238 -329 272 l-46 11 0 77 c0 94 -30 164
-91 212 -59 46 -114 59 -260 59 -121 0 -128 1 -134 21 -11 33 -74 98 -119 122
-38 20 -57 22 -231 24 -104 1 -201 -2 -215 -6z m385 -183 c18 -17 39 -64 74
-170 l50 -148 -309 0 -309 0 50 148 c66 200 56 192 259 192 150 0 160 -1 185
-22z m-644 -230 l-28 -83 -96 -3 -97 -3 0 58 c1 94 26 112 157 113 l92 0 -28
-82z m1092 70 c37 -19 46 -40 47 -101 l0 -58 -97 3 -96 3 -28 83 -28 82 90 0
c50 0 100 -5 112 -12z m268 -359 c79 -37 133 -90 171 -167 l33 -67 0 -550 0
-550 -27 -57 c-32 -69 -97 -136 -163 -169 l-50 -24 -865 0 -865 0 -50 24 c-66
33 -131 100 -163 169 l-27 57 0 550 0 550 29 62 c43 95 133 168 233 192 21 5
401 9 863 8 l825 -2 56 -26z m-2181 -784 c0 -301 -3 -385 -12 -385 -24 1 -93
37 -115 61 -39 43 -43 71 -43 328 0 239 1 249 23 291 16 30 37 51 67 67 86 46
80 74 80 -362z m2656 355 c18 -12 42 -40 53 -64 20 -39 21 -60 21 -289 0 -255
-4 -283 -43 -326 -22 -24 -91 -60 -114 -61 -10 0 -13 84 -13 386 l0 387 31 -7
c18 -3 47 -15 65 -26z"/>
<path d="M1737 4256 c-50 -18 -76 -42 -98 -91 -17 -37 -19 -76 -19 -541 l0
-501 23 -44 c15 -27 38 -52 63 -66 l39 -23 815 0 815 0 39 23 c25 14 48 39 63
66 l23 44 0 501 c0 465 -2 504 -19 541 -22 49 -48 73 -98 91 -56 20 -1590 20
-1646 0z m1591 -628 l2 -468 -770 0 -770 0 0 463 c0 255 3 467 7 470 3 4 349
6 767 5 l761 -3 3 -467z"/>
<path d="M473 2885 c-172 -47 -312 -179 -363 -344 -17 -54 -20 -92 -20 -275 0
-144 4 -227 14 -261 18 -70 58 -144 111 -209 l45 -56 0 -149 0 -148 -50 -21
c-66 -28 -144 -102 -177 -171 l-28 -56 0 -505 c0 -499 0 -506 22 -545 25 -47
74 -95 123 -121 34 -18 113 -19 2410 -19 l2375 0 40 22 c47 25 95 74 121 123
18 33 19 67 19 540 l0 505 -28 56 c-33 69 -111 143 -177 171 l-50 21 0 148 0
149 45 56 c53 65 93 139 111 209 17 61 19 437 3 505 -30 129 -139 270 -256
329 -185 93 -390 83 -611 -31 -61 -32 -139 -64 -172 -71 -75 -18 -102 -36
-125 -83 -35 -74 6 -187 98 -270 l55 -49 4 -155 c4 -130 9 -165 28 -215 41
-107 115 -202 203 -260 27 -17 27 -18 27 -139 l0 -122 -57 -18 c-98 -29 -156
-78 -310 -261 -91 -109 -157 -178 -185 -195 -42 -25 -46 -25 -313 -30 -249 -5
-274 -7 -317 -27 -138 -63 -216 -222 -175 -356 l15 -47 -370 0 c-349 0 -370 1
-363 18 61 148 -10 315 -163 385 -43 20 -68 22 -317 27 -262 5 -271 6 -312 29
-27 16 -92 84 -186 196 -156 184 -211 231 -311 262 l-56 17 0 122 0 121 41 28
c60 42 130 124 161 187 42 86 58 168 58 308 l0 125 55 48 c94 82 135 196 100
271 -23 47 -50 65 -125 83 -33 7 -111 39 -172 71 -73 38 -140 64 -191 75 -93
20 -232 21 -304 2z m259 -166 c29 -6 105 -37 168 -69 64 -32 135 -63 158 -69
35 -10 41 -15 33 -29 -37 -68 -96 -82 -342 -82 -162 0 -184 -2 -224 -21 -61
-29 -110 -88 -135 -165 l-22 -64 -54 0 -54 0 0 113 c0 133 15 191 65 259 84
114 237 162 407 127z m3941 -27 c72 -36 123 -87 159 -161 20 -39 23 -66 26
-178 l4 -133 -55 0 -55 0 -22 64 c-25 77 -74 136 -135 165 -40 19 -62 21 -224
21 -246 0 -305 14 -342 82 -8 14 -2 19 33 29 24 6 91 36 150 66 131 69 187 83
304 80 80 -2 99 -7 157 -35z m-3735 -514 c-3 -106 -8 -131 -30 -179 -51 -111
-156 -190 -272 -204 -153 -19 -315 85 -360 233 -7 21 -5 22 56 22 113 0 176
48 214 163 29 89 23 87 222 87 l174 0 -4 -122z m3600 105 c11 -10 28 -41 37
-70 36 -115 100 -163 213 -163 61 0 63 -1 56 -22 -22 -74 -94 -158 -166 -194
-178 -90 -382 -18 -466 165 -22 48 -27 73 -30 179 l-4 122 170 0 c147 0 172
-2 190 -17z m-4018 -655 c30 -5 79 -8 108 -5 l52 6 0 -90 0 -89 -125 0 -125 0
0 101 c0 92 2 101 18 94 9 -3 42 -11 72 -17z m4170 -78 l0 -100 -125 0 -125 0
0 89 0 89 63 -4 c47 -4 160 12 185 25 1 0 2 -44 2 -99z m-3792 -305 c43 -23
83 -64 192 -196 150 -179 179 -206 267 -246 47 -21 77 -27 160 -31 l103 -5 0
-128 0 -129 -268 0 c-371 0 -368 -1 -514 193 -50 67 -98 128 -106 135 -27 21
-80 15 -107 -13 -45 -44 -36 -74 71 -216 100 -135 138 -174 204 -211 l40 -23
0 -102 0 -103 -356 0 -356 0 -29 29 -29 29 0 456 c0 297 4 464 11 483 5 15 22
41 37 57 51 54 63 56 357 53 l270 -2 53 -30z m3939 24 c38 -14 83 -57 99 -96
11 -26 14 -123 14 -488 l0 -457 -29 -29 -29 -29 -356 0 -356 0 0 103 0 102 40
23 c66 37 104 76 204 211 107 142 116 172 71 216 -27 28 -80 34 -107 13 -8 -7
-56 -68 -106 -135 -146 -194 -143 -193 -514 -193 l-268 0 0 129 0 128 103 5
c83 4 113 9 160 31 91 41 110 59 262 241 139 167 181 205 253 226 41 13 526
12 559 -1z m-2867 -521 c79 -40 99 -119 48 -184 -30 -38 -77 -54 -158 -54
l-70 0 0 130 0 130 68 0 c50 0 79 -6 112 -22z m1360 -108 l0 -130 -75 0 c-82
0 -114 11 -155 55 -32 35 -34 101 -4 142 33 45 79 63 162 63 l72 0 0 -130z
m680 -385 l0 -85 -1450 0 -1450 0 0 85 0 85 1450 0 1450 0 0 -85z"/>
</g>
</svg>
