<?xml version="1.0" encoding="iso-8859-1"?>
<!-- Generator: Adobe Illustrator 19.0.0, SVG Export Plug-In . SVG Version: 6.00 Build 0)  -->
<svg version="1.1" id="Layer_1" xmlns="http://www.w3.org/2000/svg" xmlns:xlink="http://www.w3.org/1999/xlink" width="64px" height="64px" viewBox="0 0 498.427 498.427" style="enable-background:new 0 0 498.427 498.427;" xml:space="preserve">

<g transform="translate(0.000000,512.000000) scale(0.100000,-0.100000)"
fill="#00c7fd" stroke="none">
<path d="M2905 5106 c-165 -41 -285 -170 -316 -340 -24 -131 24 -269 130 -373
32 -32 64 -68 70 -80 6 -12 11 -60 11 -107 0 -127 -1 -126 200 -126 201 0 200
-1 200 126 0 47 5 95 11 107 6 12 38 48 70 80 106 104 154 242 130 373 -44
241 -276 397 -506 340z m230 -139 c59 -30 104 -75 136 -137 20 -37 24 -60 24
-130 0 -104 -24 -157 -110 -240 -71 -69 -94 -114 -102 -195 l-6 -65 -78 0 -79
0 0 38 c0 82 -28 142 -101 217 -93 97 -123 162 -117 259 9 135 87 234 218 277
49 16 162 4 215 -24z"/>
<path d="M3820 4840 l0 -80 60 0 60 0 0 80 0 80 -60 0 -60 0 0 -80z"/>
<path d="M3640 4680 l0 -60 80 0 80 0 0 60 0 60 -80 0 -80 0 0 -60z"/>
<path d="M3960 4680 l0 -60 80 0 80 0 0 60 0 60 -80 0 -80 0 0 -60z"/>
<path d="M980 4680 c-153 -63 -841 -384 -876 -408 -27 -19 -51 -49 -68 -83
-48 -99 -46 -116 34 -415 40 -148 84 -290 98 -317 44 -83 122 -127 224 -127
127 0 260 92 292 201 21 68 20 80 -5 175 -12 43 -22 85 -23 91 -1 15 362 186
380 179 6 -2 24 -26 39 -53 65 -112 133 -157 240 -158 122 0 232 67 281 170
26 56 31 130 12 186 -14 41 -277 437 -328 493 -72 81 -198 108 -300 66z m170
-112 c40 -20 62 -48 197 -248 85 -126 154 -240 158 -258 5 -25 0 -46 -17 -80
-42 -85 -170 -128 -244 -83 -19 11 -53 54 -83 104 -41 69 -58 88 -85 97 -40
13 -23 19 -281 -97 -215 -97 -265 -130 -265 -176 0 -13 11 -61 25 -107 45
-150 29 -201 -81 -252 -49 -23 -74 -29 -101 -25 -43 7 -77 29 -99 62 -21 32
-154 520 -154 565 0 41 29 92 65 116 26 17 781 365 845 389 50 19 70 18 120
-7z"/>
<path d="M920 4460 c-39 -39 -16 -93 40 -93 35 0 60 23 60 55 0 24 -35 58 -60
58 -11 0 -29 -9 -40 -20z"/>
<path d="M1080 4400 c-39 -39 -16 -93 40 -93 35 0 60 23 60 55 0 24 -35 58
-60 58 -11 0 -29 -9 -40 -20z"/>
<path d="M880 4300 c-39 -39 -16 -93 40 -93 35 0 60 23 60 55 0 24 -35 58 -60
58 -11 0 -29 -9 -40 -20z"/>
<path d="M1040 4240 c-39 -39 -16 -93 40 -93 35 0 60 23 60 55 0 24 -35 58
-60 58 -11 0 -29 -9 -40 -20z"/>
<path d="M350 4169 c-24 -11 -46 -22 -48 -24 -2 -2 4 -17 12 -34 22 -42 21
-48 -19 -61 -19 -6 -35 -13 -35 -15 0 -5 41 -99 45 -103 2 -2 17 4 34 12 40
21 48 20 55 -6 12 -48 19 -50 72 -28 27 12 50 23 52 25 2 2 -4 17 -12 34 -21
40 -20 48 7 55 47 12 49 19 27 72 -12 27 -23 50 -25 52 -2 2 -17 -4 -34 -12
-42 -22 -45 -21 -60 19 -14 40 -12 40 -71 14z"/>
<path d="M3820 4520 l0 -80 60 0 60 0 0 80 0 80 -60 0 -60 0 0 -80z"/>
<path d="M4628 4268 c-20 -17 -419 -616 -426 -641 -6 -23 412 -654 439 -662
11 -4 27 -4 38 0 27 8 445 639 439 662 -7 25 -406 624 -426 641 -9 6 -23 12
-32 12 -9 0 -23 -6 -32 -12z m154 -335 c65 -98 116 -178 114 -180 -1 -1 -55
18 -119 44 l-117 47 -117 -47 c-64 -26 -118 -45 -119 -44 -4 4 230 357 236
357 3 0 58 -80 122 -177z m-7 -260 c63 -25 115 -49 115 -53 0 -4 -51 -28 -114
-53 l-113 -46 -117 46 c-64 26 -116 50 -116 53 0 5 182 84 228 99 1 1 54 -20
117 -46z m-222 -234 l107 -42 117 46 c64 26 118 45 119 44 4 -4 -230 -357
-236 -357 -3 0 -50 68 -105 151 -145 220 -142 214 -125 207 8 -3 63 -25 123
-49z"/>
<path d="M2840 3980 l0 -60 160 0 160 0 0 60 0 60 -160 0 -160 0 0 -60z"/>
<path d="M2470 3530 c-137 -17 -296 -69 -410 -132 -208 -117 -392 -320 -486
-536 l-33 -77 -169 -5 c-163 -5 -170 -6 -228 -35 -70 -36 -116 -97 -133 -175
-14 -66 -14 -474 0 -540 16 -77 63 -139 131 -174 49 -25 73 -30 158 -34 l100
-5 -24 -32 c-33 -43 -40 -77 -26 -120 15 -46 38 -60 139 -84 46 -11 85 -22 88
-24 2 -3 -6 -28 -17 -58 -12 -29 -19 -62 -16 -74 3 -11 31 -40 63 -63 l57 -42
168 0 168 0 0 60 0 60 -153 0 c-101 0 -157 4 -164 11 -9 9 -6 28 13 78 26 70
25 105 -4 119 -9 5 -62 19 -117 32 -55 12 -102 24 -104 26 -2 2 12 28 33 58
l37 54 187 4 c167 3 191 6 227 25 75 40 112 98 122 193 l6 60 558 0 559 0 0
60 0 60 -738 0 -739 0 -21 23 c-30 32 -29 87 1 115 l23 22 863 0 862 0 24 24
c21 21 23 30 18 82 -30 330 -221 606 -516 744 -125 59 -237 83 -382 82 -198
-1 -374 -59 -533 -176 -69 -51 -69 -47 -14 -108 l24 -27 50 40 c217 171 550
209 805 90 238 -112 405 -333 448 -593 l6 -38 -649 0 -649 0 -6 60 c-10 96
-49 155 -127 196 -26 13 -66 19 -158 22 -142 5 -137 -2 -75 112 134 249 362
427 641 502 117 31 310 35 432 10 400 -83 709 -392 792 -792 28 -134 21 -327
-16 -455 -32 -109 -80 -213 -137 -296 -56 -82 -79 -146 -79 -217 0 -31 21
-186 46 -344 l47 -286 36 5 c86 14 83 -19 29 313 -31 186 -46 310 -43 335 4
26 29 79 70 144 169 271 220 551 155 852 -90 420 -425 756 -849 850 -100 22
-278 31 -371 19z m-539 -899 c24 -25 29 -38 29 -79 l0 -50 -127 -4 c-134 -4
-156 -10 -206 -57 -43 -39 -60 -80 -60 -141 0 -62 11 -90 56 -138 43 -45 108
-62 234 -62 l103 0 0 -51 c0 -43 -5 -55 -29 -80 l-29 -29 -342 0 c-377 0 -383
1 -420 63 -18 30 -20 52 -20 295 0 291 3 306 63 342 30 19 52 20 375 20 l344
0 29 -29z"/>
<path d="M940 3360 l0 -80 60 0 60 0 0 80 0 80 -60 0 -60 0 0 -80z"/>
<path d="M760 3200 l0 -60 80 0 80 0 0 60 0 60 -80 0 -80 0 0 -60z"/>
<path d="M1080 3200 l0 -60 80 0 80 0 0 60 0 60 -80 0 -80 0 0 -60z"/>
<path d="M940 3040 l0 -80 60 0 60 0 0 80 0 80 -60 0 -60 0 0 -80z"/>
<path d="M3980 3020 l0 -80 60 0 60 0 0 80 0 80 -60 0 -60 0 0 -80z"/>
<path d="M81 2955 l-24 -45 27 -21 c40 -31 72 -94 102 -199 55 -195 117 -270
262 -319 102 -35 156 -28 369 46 89 30 91 32 77 102 -4 18 -13 31 -22 31 -8 0
-69 -19 -136 -42 -156 -54 -216 -57 -296 -12 -73 41 -109 96 -144 220 -16 54
-42 125 -59 157 -29 55 -98 127 -121 127 -6 0 -22 -20 -35 -45z"/>
<path d="M1889 2967 c-9 -12 -23 -34 -33 -49 l-17 -26 47 -28 47 -27 28 34
c16 19 29 39 29 46 0 11 -68 73 -80 73 -3 0 -12 -11 -21 -23z"/>
<path d="M3800 2860 l0 -60 80 0 80 0 0 60 0 60 -80 0 -80 0 0 -60z"/>
<path d="M4120 2860 l0 -60 80 0 80 0 0 60 0 60 -80 0 -80 0 0 -60z"/>
<path d="M4453 2791 c-141 -52 -199 -128 -248 -321 -31 -124 -53 -169 -100
-208 -67 -55 -148 -65 -242 -32 -31 11 -58 19 -59 17 -7 -7 -34 -82 -34 -93 0
-20 123 -54 196 -54 120 0 230 64 286 167 15 27 41 100 58 163 40 146 66 191
133 230 86 49 119 49 270 0 159 -51 233 -60 311 -35 31 10 56 20 56 22 0 2
-11 26 -25 52 l-24 49 -43 -15 c-56 -19 -112 -12 -235 33 -125 46 -223 54
-300 25z"/>
<path d="M3980 2700 l0 -80 60 0 60 0 0 80 0 80 -60 0 -60 0 0 -80z"/>
<path d="M3320 2160 l0 -60 60 0 60 0 0 60 0 60 -60 0 -60 0 0 -60z"/>
<path d="M2732 1257 c-34 -35 -87 -78 -118 -96 -71 -44 -584 -222 -641 -223
-51 -1 -100 26 -130 72 -19 27 -23 47 -23 111 l0 79 -61 0 -62 0 5 -94 c4 -81
9 -102 35 -147 48 -85 141 -139 239 -139 25 0 122 27 245 69 443 150 459 158
586 276 l75 70 -44 42 -44 43 -62 -63z"/>
<path d="M3600 1006 c-19 -8 -249 -116 -510 -240 -261 -124 -476 -221 -478
-216 -2 5 -16 80 -31 165 -16 86 -33 161 -39 167 -5 5 -37 16 -70 23 l-60 12
-7 -45 c-4 -24 -9 -51 -12 -58 -3 -9 2 -14 13 -14 11 0 25 -4 32 -8 11 -7 62
-248 62 -292 0 -9 -41 -34 -108 -64 -197 -91 -211 -112 -212 -308 l0 -128 60
0 60 0 0 125 c0 108 2 127 18 141 29 24 1324 634 1348 634 11 0 28 -8 36 -17
9 -10 83 -166 164 -348 l149 -330 3 -102 4 -103 59 0 59 0 0 83 c0 45 -5 102
-11 127 -10 44 -297 693 -326 737 -37 56 -136 85 -203 59z"/>
<path d="M3035 442 c-335 -157 -611 -286 -612 -287 -2 -1 7 -25 19 -53 16 -38
26 -51 38 -47 20 6 1213 565 1219 571 6 5 -41 104 -48 103 -3 0 -280 -129
-616 -287z"/>
</g>
</svg>
