<?xml version="1.0" encoding="iso-8859-1"?>
<!-- Generator: Adobe Illustrator 19.0.0, SVG Export Plug-In . SVG Version: 6.00 Build 0)  -->
<svg version="1.1" id="Layer_1" xmlns="http://www.w3.org/2000/svg" xmlns:xlink="http://www.w3.org/1999/xlink" width="64px" height="64px"
	 viewBox="0 0 503.467 503.467" style="enable-background:new 0 0 503.467 503.467;" xml:space="preserve">
<g transform="translate(1 1)">
	<path style="fill:#00c7fd;" d="M473.454,113.347c33.28,33.28,33.28,87.04,0,120.32L400.92,306.2
		c-29.013,29.013-74.24,32.427-107.52,11.093l24.747-25.6c18.773,9.387,42.667,5.973,58.027-9.387l72.533-72.533
		c20.48-19.627,20.48-52.053,0-72.533c-19.627-20.48-52.053-20.48-72.533,0l-72.533,72.533
		c-15.36,16.213-18.773,39.253-9.387,58.027l-24.747,24.747c-22.187-33.28-18.773-78.507,11.093-107.52l72.533-72.533
		C385.56,80.067,440.174,80.067,473.454,113.347"/>
	<path style="fill:#00c7fd;" d="M255,356.547c13.653,15.36,21.333,34.987,21.333,56.32c0,46.933-38.4,85.333-85.333,85.333H88.6
		c-46.933,0-85.333-38.4-85.333-85.333c0-40.96,29.013-75.947,68.267-83.627v35.84c-19.627,6.827-34.133,25.6-34.133,47.787
		c0,28.16,23.04,51.2,51.2,51.2H191c28.16,0,51.2-23.04,51.2-51.2c0-12.8-4.267-23.893-11.947-32.427L255,356.547z M226.84,336.067
		l-27.307,26.453c-3.413-0.853-5.973-0.853-9.387-0.853h-85.333v-34.133h85.333C203.8,327.534,215.747,330.947,226.84,336.067z"/>
	<path style="fill:#00c7fd;" d="M105.667,361.667v51.2c0,9.387-7.68,17.067-17.067,17.067s-17.067-7.68-17.067-17.067V365.08
		v-34.987V275.48v-34.987V191c0-9.387,7.68-17.067,17.067-17.067s17.067,7.68,17.067,17.067v47.787v34.987v52.907V361.667z"/>
	<path style="fill:#00c7fd;" d="M356.547,230.254c6.827,6.827,6.827,17.067,0,23.893l-38.4,38.4l-24.747,25.6l-38.4,38.4
		l-23.893,23.893l-30.72,30.72c-6.827,6.827-17.92,6.827-23.893,0c-5.973-6.827-6.827-17.067,0-23.893l24.747-24.747l27.307-26.453
		l41.813-41.813l25.6-25.6l38.4-38.4C339.48,223.427,349.72,223.427,356.547,230.254"/>
	<path style="fill:#00c7fd;" d="M173.934,88.6V191c0,40.96-29.013,75.947-68.267,83.627V239.64
		c19.627-6.827,34.133-25.6,34.133-47.787v-102.4c0-28.16-23.04-51.2-51.2-51.2s-51.2,23.04-51.2,51.2v102.4
		c0,22.187,14.507,40.96,34.133,47.787v34.987C32.28,266.947,3.267,231.96,3.267,191V88.6c0-46.933,38.4-85.333,85.333-85.333
		S173.934,41.667,173.934,88.6"/>
</g>
<path style="fill:#;" d="M192,503.467H89.6c-49.493,0-89.6-40.107-89.6-89.6C0,384,15.36,355.84,40.107,338.774
	c1.707-1.707,4.267-0.853,5.973,0.853c1.707,1.707,0.853,4.267-0.853,5.973c-23.04,15.36-36.693,40.107-36.693,67.413
	c0,44.373,36.693,81.067,81.067,81.067h102.4c44.373,0,81.067-36.693,81.067-81.067c0-8.533-0.853-16.213-3.413-23.893
	c-0.853-2.56,0.853-4.267,2.56-5.12c2.56-0.853,4.267,0.853,5.12,2.56c2.56,8.533,4.267,17.067,4.267,26.453
	C281.6,463.36,241.494,503.467,192,503.467z M192,469.334H89.6c-30.72,0-55.467-24.747-55.467-55.467
	c0-8.533,1.707-16.213,5.12-23.893c0.853-2.56,3.413-3.413,5.973-1.707c1.707,0.853,3.413,3.413,1.707,5.973
	c-2.56,5.973-4.267,12.8-4.267,19.627c0,25.6,21.333,46.933,46.933,46.933h102.4c25.6,0,46.933-21.333,46.933-46.933
	c0-2.56,1.707-4.267,4.267-4.267s4.267,1.707,4.267,4.267C247.467,444.587,222.72,469.334,192,469.334z M89.6,435.2
	c-11.947,0-21.333-9.387-21.333-21.333V192c0-11.947,9.387-21.333,21.333-21.333s21.333,9.387,21.333,21.333v221.867
	C110.934,425.814,101.547,435.2,89.6,435.2z M89.6,179.2c-6.827,0-12.8,5.973-12.8,12.8v221.867c0,6.827,5.973,12.8,12.8,12.8
	s12.8-5.973,12.8-12.8V192C102.4,185.174,96.427,179.2,89.6,179.2z M188.587,421.547c-5.973,0-11.093-2.56-15.36-5.973
	c-8.533-8.533-8.533-22.187,0-29.867L330.24,228.693c8.533-8.533,22.187-8.533,29.867,0l0,0c8.533,8.533,8.533,22.187,0,29.867
	L203.094,415.573C199.68,418.987,194.56,421.547,188.587,421.547z M345.6,230.4c-3.413,0-6.827,0.853-9.387,3.413L179.2,390.827
	c-5.12,5.12-5.12,12.8,0,17.92s13.653,5.12,17.92,0l157.013-157.013c2.56-2.56,3.413-5.973,3.413-9.387
	c0-3.413-1.707-6.827-3.413-9.387C352.427,231.254,349.014,230.4,345.6,230.4z M162.134,366.934h-25.6
	c-2.56,0-4.267-1.707-4.267-4.267c0-2.56,1.707-4.267,4.267-4.267h25.6c2.56,0,4.267,1.707,4.267,4.267
	C166.4,365.227,164.694,366.934,162.134,366.934z M341.334,337.067c-5.973,0-11.093-0.853-17.067-1.707
	c-2.56-0.853-3.413-2.56-3.413-5.12s2.56-3.413,5.12-3.413c26.453,5.12,53.76-3.413,72.533-22.187l72.533-72.533
	c15.36-15.36,23.893-35.84,23.893-57.173S486.4,133.12,471.04,117.76c-15.36-15.36-35.84-23.893-57.173-23.893
	c-21.333,0-41.813,8.533-57.173,23.893l-72.533,72.533c-17.92,17.92-26.453,43.52-23.04,69.12c0,2.56-1.707,4.267-3.413,5.12
	c-2.56,0-4.267-1.707-5.12-3.413c-4.267-28.16,5.12-56.32,25.6-75.947l72.533-72.533c17.067-17.067,39.253-26.453,63.147-26.453
	c23.893,0,46.08,9.387,63.147,26.453c17.067,17.067,26.453,39.253,26.453,63.147s-9.387,46.08-26.453,63.147l-72.533,72.533
	C388.267,327.68,365.227,337.067,341.334,337.067z M192,332.8h-55.467c-2.56,0-4.267-1.707-4.267-4.267
	c0-2.56,1.707-4.267,4.267-4.267H192c2.56,0,4.267,1.707,4.267,4.267C196.267,331.093,194.56,332.8,192,332.8z M363.52,297.814
	c-1.707,0-3.413-0.853-4.267-2.56c-0.853-1.707,0-4.267,1.707-5.973c4.267-2.56,8.533-5.12,12.8-9.387l72.533-72.533
	c17.92-17.92,17.92-47.787,0-66.56c-17.92-17.92-47.787-17.92-66.56,0L307.2,213.334c-3.413,3.413-6.827,8.533-9.387,12.8
	c-0.853,1.707-3.413,3.413-5.973,1.707c-1.707-0.853-3.413-3.413-1.707-5.973c2.56-5.973,5.973-11.093,11.093-15.36l72.533-72.533
	c21.333-21.333,57.173-21.333,78.507,0c21.333,21.333,21.333,57.173,0,78.507l-72.533,72.533c-4.267,4.267-9.387,7.68-15.36,11.093
	C365.227,297.814,364.374,297.814,363.52,297.814z M136.534,267.947c-1.707,0-2.56-0.853-3.413-1.707
	c-1.707-1.707-0.853-4.267,0.853-5.973c23.04-15.36,36.693-40.107,36.693-67.413v-102.4c0-44.373-36.693-81.067-81.067-81.067
	S8.534,46.08,8.534,90.453v102.4c0,27.307,13.653,52.907,36.693,67.413c1.707,1.707,2.56,4.267,0.853,5.973
	c-1.707,1.707-4.267,2.56-5.973,0.853C14.507,250.027,0,222.72,0,192V89.6C0,40.107,40.107,0,89.6,0s89.6,40.107,89.6,89.6V192
	c0,29.867-15.36,58.027-40.107,75.093C138.24,267.093,137.387,267.947,136.534,267.947z M136.534,217.6c-0.853,0-0.853,0-1.707,0
	c-2.56-0.853-3.413-3.413-1.707-5.973c2.56-5.973,4.267-12.8,4.267-19.627V89.6c0-25.6-21.333-46.933-46.933-46.933
	S43.52,64,43.52,89.6V192c0,6.827,1.707,13.653,4.267,19.627c0.853,2.56,0,4.267-1.707,5.973c-1.707,1.707-4.267,0-5.973-1.707
	c-3.413-6.827-5.12-14.507-5.12-23.04v-102.4c0-30.72,24.747-55.467,55.467-55.467s55.467,24.747,55.467,55.467v102.4
	c0,7.68-1.707,16.213-5.12,23.04C139.093,216.747,137.387,217.6,136.534,217.6z"/>
<g>
</g>
<g>
</g>
<g>
</g>
<g>
</g>
<g>
</g>
<g>
</g>
<g>
</g>
<g>
</g>
<g>
</g>
<g>
</g>
<g>
</g>
<g>
</g>
<g>
</g>
<g>
</g>
<g>
</g>
</svg>
