<svg width="300" height="298" viewBox="0 0 99 99" fill="none" xmlns="http://www.w3.org/2000/svg">
<path d="M99 47.3473C98.83 47.7606 98.638 48.1643 98.4249 48.5569C98.1321 49.0625 97.7279 49.494 97.2434 49.8183C96.7588 50.1425 96.2068 50.3509 95.6297 50.4275C95.0526 50.504 94.4657 50.4467 93.914 50.2599C93.3623 50.0731 92.8606 49.7618 92.4472 49.3498C91.4658 48.3262 90.4254 47.3613 89.3313 46.4603V73.8769C89.3491 74.907 88.9589 75.902 88.2467 76.643C87.5344 77.384 86.5584 77.8103 85.5334 77.8281C84.5084 77.8459 83.5184 77.4538 82.781 76.738C82.0437 76.0222 81.6195 75.0414 81.6018 74.0113C81.6018 68.3129 81.6018 62.6146 81.6018 56.9162C81.6018 51.2179 81.6018 45.1298 81.6018 39.2299C81.5679 38.7292 81.3651 38.2551 81.0267 37.8859C71.6568 28.3529 62.2645 18.8377 52.8499 9.34045C50.7504 7.21701 48.6642 7.21701 46.5646 9.34045C37.0787 18.7929 27.6018 28.2767 18.1337 37.7919C17.881 38.0261 17.6837 38.3143 17.5565 38.6353C17.4292 38.9562 17.3751 39.3018 17.3982 39.6465C17.3982 50.9446 17.3982 62.2428 17.3982 73.5409C17.4186 74.0262 17.3917 74.5123 17.318 74.9924C17.1469 75.9676 16.6105 76.8398 15.819 77.4296C15.0275 78.0194 14.0412 78.2819 13.063 78.1631C12.0848 78.0443 11.1891 77.5533 10.5602 76.791C9.93125 76.0287 9.61698 75.0531 9.68202 74.0651C9.68202 65.2667 9.68202 56.4593 9.68202 47.643V46.2991L7.89005 48.0462C7.44874 48.4763 7.03418 48.9332 6.55275 49.3901C6.08877 49.8447 5.51852 50.1748 4.89441 50.3499C4.27031 50.5251 3.61241 50.5397 2.9812 50.3925C2.35 50.2453 1.76575 49.941 1.2822 49.5075C0.798648 49.074 0.431312 48.5253 0.213972 47.9118L0 47.3877V45.8556C0.437903 45.0029 0.967035 44.2007 1.57801 43.4633C14.8529 30.1045 28.1501 16.7591 41.4695 3.42707C42.844 2.05104 44.534 1.03568 46.3908 0.47039C46.9658 0.295677 47.5542 0.161274 48.1293 0H51.0312C53.8288 0.509062 56.3994 1.88062 58.3863 3.92434C71.2333 16.9875 84.107 30.0328 97.0074 43.0601C97.742 43.936 98.404 44.871 98.9866 45.8556L99 47.3473Z" fill="url(#paint0_linear_250_2)"/>
<path d="M48.6318 99L47.8109 98.7059C46.6315 98.3784 45.567 97.7398 44.7344 96.8603C43.9018 95.9807 43.3332 94.894 43.091 93.7195C42.8009 92.5372 42.8463 91.2999 43.2224 90.141C43.5985 88.982 44.2909 87.9452 45.2252 87.1423C45.5765 86.8026 45.7944 86.3531 45.8409 85.8723C45.8409 73.8051 45.8409 61.7335 45.8409 49.6574C45.808 49.2047 45.6031 48.7803 45.2663 48.4677C44.1993 47.562 43.441 46.3594 43.0927 45.0209C42.7445 43.6825 42.823 42.272 43.3178 40.9784C43.8125 39.6848 44.6999 38.5697 45.8611 37.7824C47.0223 36.9951 48.4019 36.5732 49.8152 36.5732C51.2285 36.5732 52.6081 36.9951 53.7693 37.7824C54.9305 38.5697 55.8179 39.6848 56.3126 40.9784C56.8074 42.272 56.8859 43.6825 56.5377 45.0209C56.1895 46.3594 55.4311 47.562 54.3642 48.4677C54.0255 48.7776 53.8243 49.2045 53.8033 49.6574C53.8033 61.7602 53.8033 73.8631 53.8033 85.9659C53.8157 86.3602 53.9765 86.7361 54.2547 87.0219C55.2544 87.8265 55.9998 88.8918 56.4043 90.094C56.8087 91.2962 56.8556 92.5859 56.5395 93.8131C56.2644 95.0493 55.628 96.181 54.7076 97.0709C53.7872 97.9607 52.6224 98.5705 51.3543 98.8262C51.2363 98.8762 51.122 98.9343 51.0123 99H48.6318Z" fill="url(#paint1_linear_250_2)"/>
<path d="M19.669 99.0001C18.8425 98.7081 18.0394 98.3521 17.2667 97.9352C15.8387 97.1367 14.7549 95.8278 14.2266 94.2633C13.6982 92.6989 13.7632 90.9911 14.4087 89.4726C15.0543 87.9541 16.2343 86.7337 17.7187 86.0491C19.2032 85.3645 20.8859 85.2647 22.4389 85.7693C22.7088 85.8853 23.0093 85.9064 23.2924 85.8292C23.5755 85.7521 23.825 85.581 24.0011 85.3433C25.1431 84.1054 26.3771 82.9474 27.5323 81.7095C27.816 81.3898 27.9829 80.981 28.0049 80.5515C28.0049 73.6033 28.0049 66.6463 28.0049 59.6803C27.9606 59.2026 27.7459 58.7577 27.401 58.4291C26.2806 57.4076 25.5352 56.0308 25.2867 54.5239C25.0382 53.017 25.3014 51.4692 26.0331 50.1336C26.7649 48.7981 27.9219 47.7538 29.315 47.1716C30.7081 46.5895 32.2548 46.5038 33.7021 46.9287C35.1391 47.3586 36.3905 48.2684 37.2532 49.5104C38.1159 50.7525 38.5392 52.2537 38.4542 53.7704C38.4256 54.6409 38.2195 55.4959 37.849 56.2816C37.4785 57.0674 36.9515 57.7668 36.3013 58.336C36.063 58.5304 35.8759 58.7817 35.7568 59.0674C35.6376 59.3531 35.5902 59.6643 35.6187 59.9732C35.6187 67.3739 35.6187 74.7879 35.6187 82.1887C35.6484 82.9075 35.5227 83.6243 35.2506 84.2887C34.9785 84.9532 34.5665 85.5493 34.0435 86.0355C31.9693 88.0587 29.9609 90.1484 27.9393 92.2249C27.664 92.5196 27.4694 92.8821 27.3748 93.2765C27.1787 94.6437 26.5679 95.9153 25.627 96.9146C24.6861 97.914 23.4618 98.5917 22.1239 98.8536C22.0395 98.8846 21.9631 98.9347 21.9007 99.0001H19.669Z" fill="url(#paint2_linear_250_2)"/>
<path d="M76.246 98.9467C76.076 98.8686 75.9009 98.8019 75.7219 98.747C74.2198 98.357 72.8951 97.4752 71.963 96.2449C71.0309 95.0146 70.5463 93.5082 70.5879 91.9706C70.5556 91.4767 70.3568 91.0079 70.0235 90.6393C68.3704 88.9219 66.677 87.2311 64.9568 85.5936C64.4354 85.1189 64.0256 84.5367 63.7562 83.888C63.4868 83.2393 63.3645 82.5399 63.3978 81.8392C63.3978 76.3143 63.3978 70.8026 63.3978 65.291C63.4094 65.0363 63.3594 64.7825 63.2519 64.5509C63.1443 64.3193 62.9824 64.1166 62.7796 63.9596C61.764 63.0614 61.0478 61.8789 60.7258 60.5685C60.4038 59.2581 60.4912 57.8817 60.9764 56.6217C61.4616 55.3616 62.3218 54.2773 63.443 53.5122C64.5642 52.7472 65.8935 52.3375 67.2549 52.3375C68.6164 52.3375 69.9457 52.7472 71.0669 53.5122C72.1881 54.2773 73.0482 55.3616 73.5334 56.6217C74.0187 57.8817 74.1061 59.2581 73.7841 60.5685C73.4621 61.8789 72.7459 63.0614 71.7303 63.9596C71.5305 64.117 71.3731 64.3209 71.2723 64.5533C71.1714 64.7856 71.1303 65.039 71.1524 65.291C71.1524 70.2035 71.1524 75.1028 71.1524 80.002C71.172 80.4938 71.3618 80.9639 71.69 81.3333C72.9264 82.6647 74.2166 83.9028 75.5203 85.1409C75.7929 85.3842 76.1478 85.5172 76.5148 85.5137C78.297 85.2083 80.1287 85.6167 81.6069 86.6491C83.0851 87.6815 84.0888 89.2533 84.3971 91.0187C84.7054 92.7841 84.2931 94.5986 83.2509 96.0629C82.2087 97.5272 80.622 98.5214 78.8398 98.8269C78.7239 98.8767 78.6116 98.9345 78.5038 98.9999L76.246 98.9467Z" fill="url(#paint3_linear_250_2)"/>
<defs>
<linearGradient id="paint0_linear_250_2" x1="0.013373" y1="38.988" x2="99" y2="38.988" gradientUnits="userSpaceOnUse">
<stop stop-color="#FFEB76"/>
<stop offset="0.17" stop-color="#AE7F25"/>
<stop offset="0.25" stop-color="#894E00"/>
<stop offset="0.51" stop-color="#C3912F"/>
<stop offset="0.54" stop-color="#CDA13C"/>
<stop offset="0.66" stop-color="#EFDB6C"/>
<stop offset="0.71" stop-color="#FDF17E"/>
<stop offset="0.89" stop-color="#9F6812"/>
<stop offset="1" stop-color="#E4C85C"/>
</linearGradient>
<linearGradient id="paint1_linear_250_2" x1="42.8994" y1="67.7983" x2="56.7447" y2="67.7983" gradientUnits="userSpaceOnUse">
<stop stop-color="#FFEB76"/>
<stop offset="0.17" stop-color="#AE7F25"/>
<stop offset="0.25" stop-color="#894E00"/>
<stop offset="0.51" stop-color="#C3912F"/>
<stop offset="0.54" stop-color="#CDA13C"/>
<stop offset="0.66" stop-color="#EFDB6C"/>
<stop offset="0.71" stop-color="#FDF17E"/>
<stop offset="0.89" stop-color="#9F6812"/>
<stop offset="1" stop-color="#E4C85C"/>
</linearGradient>
<linearGradient id="paint2_linear_250_2" x1="14.1687" y1="72.8313" x2="38.4542" y2="72.8313" gradientUnits="userSpaceOnUse">
<stop stop-color="#FFEB76"/>
<stop offset="0.17" stop-color="#AE7F25"/>
<stop offset="0.25" stop-color="#894E00"/>
<stop offset="0.51" stop-color="#C3912F"/>
<stop offset="0.54" stop-color="#CDA13C"/>
<stop offset="0.66" stop-color="#EFDB6C"/>
<stop offset="0.71" stop-color="#FDF17E"/>
<stop offset="0.89" stop-color="#9F6812"/>
<stop offset="1" stop-color="#E4C85C"/>
</linearGradient>
<linearGradient id="paint3_linear_250_2" x1="60.5083" y1="75.5687" x2="84.2157" y2="75.5687" gradientUnits="userSpaceOnUse">
<stop stop-color="#FFEB76"/>
<stop offset="0.17" stop-color="#AE7F25"/>
<stop offset="0.25" stop-color="#894E00"/>
<stop offset="0.51" stop-color="#C3912F"/>
<stop offset="0.54" stop-color="#CDA13C"/>
<stop offset="0.66" stop-color="#EFDB6C"/>
<stop offset="0.71" stop-color="#FDF17E"/>
<stop offset="0.89" stop-color="#9F6812"/>
<stop offset="1" stop-color="#E4C85C"/>
</linearGradient>
</defs>
</svg>
