<svg width="299" height="299" viewBox="0 0 99 99" fill="none" xmlns="http://www.w3.org/2000/svg">
<path d="M99 47.0235C98.8327 47.4399 98.6407 47.8459 98.4251 48.2395C98.1315 48.7436 97.7261 49.1736 97.2399 49.4963C96.7538 49.8189 96.2 50.0257 95.6212 50.1006C95.0425 50.1755 94.4543 50.1165 93.902 49.9282C93.3496 49.7399 92.848 49.4273 92.4357 49.0145C91.4524 48.0078 90.4171 47.0533 89.334 46.1549V47.1437C89.334 55.9097 89.334 64.6667 89.334 73.4149C89.3726 73.9389 89.3038 74.4652 89.1319 74.9618C88.96 75.4583 88.6885 75.9145 88.334 76.3025C87.9796 76.6906 87.5496 77.0022 87.0705 77.2184C86.5914 77.4346 86.0732 77.5508 85.5476 77.5599C85.022 77.569 84.5001 77.4708 84.0138 77.2714C83.5274 77.0719 83.087 76.7753 82.7193 76.3998C82.3516 76.0243 82.0644 75.5777 81.8754 75.0875C81.6863 74.5972 81.5994 74.0735 81.6199 73.5485C81.6199 67.8827 81.6199 62.2169 81.6199 56.5511C81.6199 50.6849 81.6199 44.832 81.6199 38.9657C81.5799 38.4694 81.3779 37.9999 81.0449 37.6295C71.6775 28.1419 62.2833 18.6811 52.8624 9.24701C50.7768 7.1357 48.6867 7.1357 46.5922 9.24701C37.0999 18.6455 27.6433 28.0528 18.2224 37.4691C17.97 37.7057 17.7723 37.9944 17.643 38.3152C17.5137 38.636 17.4559 38.9812 17.4737 39.3265C17.4737 50.5602 17.4737 61.7938 17.4737 73.0274C17.4963 73.5104 17.4649 73.9945 17.3801 74.4706C17.1875 75.4187 16.6446 76.2595 15.8596 76.8255C15.0746 77.3916 14.1051 77.6413 13.1441 77.5251C12.1832 77.4088 11.3013 76.935 10.6741 76.1981C10.0469 75.4612 9.72041 74.5152 9.75964 73.5485C9.75964 64.7915 9.75964 56.0344 9.75964 47.2774V45.9411L7.90129 47.7985C7.4601 48.2261 7.04565 48.6805 6.56435 49.1348C6.1005 49.5868 5.53042 49.9149 4.90649 50.0891C4.28255 50.2633 3.62482 50.2778 2.99378 50.1314C2.36275 49.9851 1.77866 49.6825 1.29524 49.2515C0.811815 48.8204 0.444577 48.2749 0.227297 47.6649C0.16045 47.4912 0.0802161 47.3175 0 47.1304V45.5937C0.447431 44.7515 0.975771 43.9549 1.57757 43.2151C14.8667 29.9325 28.1648 16.6589 41.4717 3.39413C42.8442 2.02684 44.5347 1.02133 46.3916 0.467694C46.9665 0.293978 47.5547 0.14699 48.1296 0H51.0308C53.8277 0.495028 56.3965 1.86067 58.3706 3.90192C71.2319 16.8905 84.1021 29.8613 96.9812 42.8142C97.7273 43.6791 98.394 44.6094 98.9732 45.5937L99 47.0235Z" fill="url(#paint0_linear_79_1457)"/>
<path d="M49.0006 98.3695L48.2171 98.0786C47.0916 97.7516 46.0757 97.1194 45.2794 96.2504C44.483 95.3814 43.9364 94.3085 43.6986 93.1479C43.4233 91.9776 43.4687 90.7534 43.83 89.6073C44.1913 88.4612 44.8548 87.4366 45.7489 86.6441C46.1 86.2937 46.3055 85.8209 46.3235 85.3222C46.3235 73.3897 46.3235 61.4528 46.3235 49.5115C46.3008 49.0643 46.1091 48.6431 45.7881 48.335C44.7696 47.4394 44.0458 46.2502 43.7134 44.9267C43.381 43.6032 43.4559 42.2085 43.9282 40.9293C44.4005 39.6501 45.2475 38.5474 46.3559 37.7689C47.4643 36.9905 48.7812 36.5733 50.1303 36.5733C51.4794 36.5733 52.7963 36.9905 53.9047 37.7689C55.0131 38.5474 55.8601 39.6501 56.3324 40.9293C56.8046 42.2085 56.8796 43.6032 56.5472 44.9267C56.2148 46.2502 55.4909 47.4394 54.4725 48.335C54.151 48.6441 53.9553 49.0637 53.924 49.5115C53.924 61.488 53.924 73.4602 53.924 85.4279C53.9359 85.8178 54.0893 86.1896 54.3549 86.4722C55.3134 87.2611 56.0274 88.3124 56.4118 89.5008C56.7962 90.6892 56.8347 91.9644 56.5228 93.1743C56.268 94.3996 55.665 95.5229 54.788 96.4059C53.911 97.289 52.7982 97.8933 51.5864 98.1447C51.4712 98.1887 51.3616 98.2464 51.2599 98.3166L49.0006 98.3695Z" fill="url(#paint1_linear_79_1457)"/>
<path d="M19.8179 98.3694C18.9701 98.0774 18.1464 97.7214 17.3539 97.3044C15.8891 96.5059 14.7776 95.1968 14.2357 93.6323C13.6938 92.0678 13.7603 90.3598 14.4225 88.8412C15.0846 87.3225 16.2949 86.102 17.8175 85.4173C19.34 84.7326 21.0659 84.6329 22.6588 85.1375C22.9371 85.2521 23.2462 85.2712 23.5367 85.1915C23.8273 85.1119 24.0823 84.9382 24.2611 84.6982C25.4325 83.4602 26.6981 82.3153 27.883 81.0773C28.1661 80.7527 28.336 80.3467 28.3677 79.9192C28.3677 72.9616 28.3677 66.004 28.3677 59.0463C28.3222 58.5686 28.102 58.1236 27.7483 57.795C26.888 57.0366 26.2364 56.0747 25.8545 54.9995C25.4725 53.9243 25.3728 52.7708 25.5645 51.6471C25.7563 50.5234 26.2332 49.4661 26.9508 48.5743C27.6684 47.6825 28.6031 46.9852 29.6675 46.5478C30.7318 46.1103 31.8911 45.9471 33.0366 46.0732C34.1822 46.1993 35.2767 46.6108 36.2176 47.269C37.1586 47.9272 37.9152 48.8107 38.4168 49.8368C38.9183 50.8629 39.1483 51.998 39.0853 53.1359C39.0565 54.0046 38.8453 54.8579 38.4652 55.6416C38.0851 56.4254 37.5443 57.1224 36.8771 57.6885C36.6306 57.8842 36.4375 58.1377 36.3152 58.426C36.193 58.7143 36.1455 59.0282 36.177 59.3392C36.177 66.7405 36.177 74.1419 36.177 81.5566C36.2002 82.2746 36.0681 82.9892 35.7895 83.6527C35.5108 84.3161 35.0921 84.9131 34.5613 85.4037C32.4339 87.4271 30.3739 89.517 28.3004 91.5937C28.0154 91.8865 27.8154 92.2497 27.7214 92.6453C27.5092 94.0083 26.8789 95.274 25.9157 96.2715C24.9526 97.269 23.703 97.9501 22.3357 98.223C22.2465 98.2567 22.1644 98.3063 22.0933 98.3694H19.8179Z" fill="url(#paint2_linear_79_1457)"/>
<path d="M76.896 98.9059C76.7265 98.8271 76.552 98.7597 76.3735 98.7043C74.876 98.3104 73.5553 97.4199 72.626 96.1775C71.6968 94.9351 71.2136 93.4138 71.2551 91.861C71.2325 91.34 71.0341 90.8423 70.6924 90.4494C69.0488 88.7105 67.365 87.0165 65.641 85.3674C65.1279 84.8971 64.723 84.3204 64.4546 83.6773C64.1862 83.0341 64.0607 82.34 64.0867 81.6432C64.0867 76.0772 64.0867 70.5112 64.0867 64.9452C64.0951 64.6885 64.0438 64.4333 63.9368 64.1999C63.8298 63.9665 63.6701 63.7614 63.4704 63.6007C62.4359 62.6903 61.7027 61.4851 61.3685 60.1458C61.0342 58.8065 61.1148 57.3968 61.5995 56.1047C62.0843 54.8125 62.9501 53.6994 64.0815 52.9137C65.213 52.128 66.5562 51.7071 67.9322 51.7071C69.3082 51.7071 70.6514 52.128 71.7829 52.9137C72.9143 53.6994 73.7801 54.8125 74.2648 56.1047C74.7496 57.3968 74.8302 58.8065 74.496 60.1458C74.1617 61.4851 73.4285 62.6903 72.394 63.6007C72.1939 63.7589 72.0363 63.9647 71.9357 64.1995C71.8351 64.4343 71.7945 64.6907 71.8179 64.9452C71.8179 69.8928 71.8179 74.8538 71.8179 79.8013C71.8433 80.2991 72.037 80.7734 72.3672 81.1458C73.5865 82.4902 74.8862 83.754 76.1859 85.0043C76.4598 85.2467 76.8123 85.3805 77.1774 85.3808C78.0572 85.229 78.9582 85.2525 79.8289 85.45C80.6996 85.6476 81.5231 86.0153 82.2522 86.5321C82.9813 87.049 83.6017 87.7049 84.0782 88.4623C84.5547 89.2198 84.8778 90.064 85.0292 90.9468C85.1805 91.8296 85.1571 92.7336 84.9602 93.6073C84.7633 94.481 84.3969 95.3072 83.8818 96.0388C83.3667 96.7704 82.713 97.393 81.9581 97.8711C81.2032 98.3492 80.3618 98.6734 79.482 98.8253C79.3748 98.8253 79.2676 98.9463 79.1605 99L76.896 98.9059Z" fill="url(#paint3_linear_79_1457)"/>
<defs>
<linearGradient id="paint0_linear_79_1457" x1="0.0267387" y1="38.7252" x2="99" y2="38.7252" gradientUnits="userSpaceOnUse">
<stop stop-color="#6D6E72"/>
<stop offset="0.26" stop-color="#F0F1F1"/>
<stop offset="0.32" stop-color="#EEEFEF"/>
<stop offset="0.34" stop-color="#E7E8E9"/>
<stop offset="0.36" stop-color="#DBDDDE"/>
<stop offset="0.38" stop-color="#CACCCE"/>
<stop offset="0.39" stop-color="#A7AAAD"/>
<stop offset="0.76" stop-color="#D0D3D4"/>
<stop offset="0.87" stop-color="#CED1D2"/>
<stop offset="0.9" stop-color="#C7CACB"/>
<stop offset="0.93" stop-color="#BCBEC0"/>
<stop offset="0.96" stop-color="#ABADAF"/>
<stop offset="0.98" stop-color="#95979A"/>
<stop offset="0.99" stop-color="#7B7C7F"/>
<stop offset="1" stop-color="#6D6E72"/>
</linearGradient>
<linearGradient id="paint1_linear_79_1457" x1="43.5158" y1="67.5027" x2="56.7317" y2="67.5027" gradientUnits="userSpaceOnUse">
<stop stop-color="#6D6E72"/>
<stop offset="0.26" stop-color="#F0F1F1"/>
<stop offset="0.32" stop-color="#EEEFEF"/>
<stop offset="0.34" stop-color="#E7E8E9"/>
<stop offset="0.36" stop-color="#DBDDDE"/>
<stop offset="0.38" stop-color="#CACCCE"/>
<stop offset="0.39" stop-color="#A7AAAD"/>
<stop offset="0.76" stop-color="#D0D3D4"/>
<stop offset="0.87" stop-color="#CED1D2"/>
<stop offset="0.9" stop-color="#C7CACB"/>
<stop offset="0.93" stop-color="#BCBEC0"/>
<stop offset="0.96" stop-color="#ABADAF"/>
<stop offset="0.98" stop-color="#95979A"/>
<stop offset="0.99" stop-color="#7B7C7F"/>
<stop offset="1" stop-color="#6D6E72"/>
</linearGradient>
<linearGradient id="paint2_linear_79_1457" x1="14.1763" y1="72.1984" x2="39.0853" y2="72.1984" gradientUnits="userSpaceOnUse">
<stop stop-color="#6D6E72"/>
<stop offset="0.26" stop-color="#F0F1F1"/>
<stop offset="0.32" stop-color="#EEEFEF"/>
<stop offset="0.34" stop-color="#E7E8E9"/>
<stop offset="0.36" stop-color="#DBDDDE"/>
<stop offset="0.38" stop-color="#CACCCE"/>
<stop offset="0.39" stop-color="#A7AAAD"/>
<stop offset="0.76" stop-color="#D0D3D4"/>
<stop offset="0.87" stop-color="#CED1D2"/>
<stop offset="0.9" stop-color="#C7CACB"/>
<stop offset="0.93" stop-color="#BCBEC0"/>
<stop offset="0.96" stop-color="#ABADAF"/>
<stop offset="0.98" stop-color="#95979A"/>
<stop offset="0.99" stop-color="#7B7C7F"/>
<stop offset="1" stop-color="#6D6E72"/>
</linearGradient>
<linearGradient id="paint3_linear_79_1457" x1="61.1926" y1="75.2974" x2="84.8416" y2="75.2974" gradientUnits="userSpaceOnUse">
<stop stop-color="#6D6E72"/>
<stop offset="0.26" stop-color="#F0F1F1"/>
<stop offset="0.32" stop-color="#EEEFEF"/>
<stop offset="0.34" stop-color="#E7E8E9"/>
<stop offset="0.36" stop-color="#DBDDDE"/>
<stop offset="0.38" stop-color="#CACCCE"/>
<stop offset="0.39" stop-color="#A7AAAD"/>
<stop offset="0.76" stop-color="#D0D3D4"/>
<stop offset="0.87" stop-color="#CED1D2"/>
<stop offset="0.9" stop-color="#C7CACB"/>
<stop offset="0.93" stop-color="#BCBEC0"/>
<stop offset="0.96" stop-color="#ABADAF"/>
<stop offset="0.98" stop-color="#95979A"/>
<stop offset="0.99" stop-color="#7B7C7F"/>
<stop offset="1" stop-color="#6D6E72"/>
</linearGradient>
</defs>
</svg>
