<svg width="250" height="198" viewBox="0 0 125 99" fill="none" xmlns="http://www.w3.org/2000/svg">
<path d="M0.0340063 22.9322C0.362747 21.91 0.600795 20.8528 1.02022 19.877C2.18996 17.1647 4.32204 15.0096 6.98447 13.8483C9.6469 12.6869 12.6406 12.6061 15.359 13.6224C18.0773 14.6386 20.317 16.6758 21.6244 19.3212C22.9317 21.9666 23.2089 25.0224 22.3997 27.8695C22.2977 28.218 22.173 28.5665 21.9803 29.1589C24.7009 29.8908 27.3308 30.704 30.0061 31.2964C35.8554 32.5975 41.7501 33.1087 47.6221 31.4242C49.982 30.7991 52.1983 29.7025 54.1436 28.1974C56.0889 26.6923 57.725 24.8082 58.958 22.6534C57.2801 22.0529 55.7589 21.0663 54.511 19.7694C53.2632 18.4726 52.322 16.8999 51.7597 15.1721C50.9546 12.7904 50.9546 10.2003 51.7597 7.81859C52.5726 5.44886 54.1082 3.41021 56.1394 2.00423C58.1706 0.598242 60.5894 -0.1004 63.0381 0.0116495C65.4867 0.123699 67.8352 1.04049 69.736 2.6264C71.6368 4.21231 72.989 6.38311 73.5926 8.81765C74.9529 14.4286 72.5497 18.9592 66.1789 22.758C69.5797 29.1473 74.6015 33.3526 81.7771 34.4563C87.9552 35.4089 93.8158 33.9916 99.5518 31.7844C100.833 31.2848 102.102 30.7272 103.463 30.158C101.66 26.0804 101.638 22.1191 103.973 18.3203C104.81 16.9326 105.929 15.7456 107.253 14.8397C108.577 13.9337 110.076 13.33 111.647 13.0695C113.199 12.7986 114.788 12.8588 116.316 13.2464C117.844 13.634 119.278 14.3406 120.527 15.322C121.776 16.3034 122.814 17.5384 123.576 18.9499C124.338 20.3613 124.808 21.9188 124.956 23.5247C125.11 25.3309 124.86 27.1494 124.224 28.8413C123.588 30.5332 122.583 32.0537 121.286 33.2866C119.989 34.5196 118.433 35.4324 116.739 35.9552C115.045 36.4781 113.257 36.5971 111.511 36.3034C110.752 39.0798 109.97 41.8795 109.244 44.6792C106.977 52.8885 104.74 61.1055 102.533 69.3304C102.322 70.1298 102.212 70.9535 102.204 71.7815C102.204 75.406 102.204 79.0305 102.204 82.7247H22.8531C22.8531 82.1787 22.8531 81.6443 22.8531 81.1216C23.2834 73.8406 22.3365 66.543 20.0645 59.6302C17.7973 52.2651 15.9156 44.7489 13.8638 37.2908C13.7731 36.9771 13.6597 36.6751 13.5124 36.1291C12.1544 36.2454 10.7894 36.2454 9.43145 36.1291C7.14889 35.7399 5.03905 34.6387 3.38971 32.9755C1.74038 31.3123 0.631871 29.1681 0.215385 26.8355C0.153444 26.6458 0.0815429 26.4597 0 26.2779L0.0340063 22.9322Z" fill="url(#paint0_linear_79_1623)"/>
<path d="M102.114 88.0569V99.0001H22.9553V88.0569H102.114Z" fill="url(#paint1_linear_79_1623)"/>
<defs>
<linearGradient id="paint0_linear_79_1623" x1="0.0340077" y1="41.2406" x2="125.046" y2="41.2406" gradientUnits="userSpaceOnUse">
<stop stop-color="#6D6E72"/>
<stop offset="0.26" stop-color="#F0F1F1"/>
<stop offset="0.32" stop-color="#EEEFEF"/>
<stop offset="0.34" stop-color="#E7E8E9"/>
<stop offset="0.36" stop-color="#DBDDDE"/>
<stop offset="0.38" stop-color="#CACCCE"/>
<stop offset="0.39" stop-color="#A7AAAD"/>
<stop offset="0.76" stop-color="#D0D3D4"/>
<stop offset="0.87" stop-color="#CED1D2"/>
<stop offset="0.9" stop-color="#C7CACB"/>
<stop offset="0.93" stop-color="#BCBEC0"/>
<stop offset="0.96" stop-color="#ABADAF"/>
<stop offset="0.98" stop-color="#95979A"/>
<stop offset="0.99" stop-color="#7B7C7F"/>
<stop offset="1" stop-color="#6D6E72"/>
</linearGradient>
<linearGradient id="paint1_linear_79_1623" x1="22.9553" y1="93.5285" x2="102.114" y2="93.5285" gradientUnits="userSpaceOnUse">
<stop stop-color="#6D6E72"/>
<stop offset="0.26" stop-color="#F0F1F1"/>
<stop offset="0.32" stop-color="#EEEFEF"/>
<stop offset="0.34" stop-color="#E7E8E9"/>
<stop offset="0.36" stop-color="#DBDDDE"/>
<stop offset="0.38" stop-color="#CACCCE"/>
<stop offset="0.39" stop-color="#A7AAAD"/>
<stop offset="0.76" stop-color="#D0D3D4"/>
<stop offset="0.87" stop-color="#CED1D2"/>
<stop offset="0.9" stop-color="#C7CACB"/>
<stop offset="0.93" stop-color="#BCBEC0"/>
<stop offset="0.96" stop-color="#ABADAF"/>
<stop offset="0.98" stop-color="#95979A"/>
<stop offset="0.99" stop-color="#7B7C7F"/>
<stop offset="1" stop-color="#6D6E72"/>
</linearGradient>
</defs>
</svg>
