<svg width="250" height="198" viewBox="0 0 125 99" fill="none" xmlns="http://www.w3.org/2000/svg">
<path d="M0 23.0339C0.317347 22.013 0.566693 20.9688 0.974711 19.9827C2.12984 17.2513 4.26085 15.0747 6.93185 13.8984C9.60286 12.722 12.612 12.6346 15.3439 13.6542C18.0757 14.6737 20.3238 16.7231 21.6283 19.3832C22.9328 22.0433 23.1951 25.113 22.3617 27.9645C22.2597 28.3242 22.135 28.6722 21.9423 29.2639C24.6511 29.9948 27.2805 30.7953 29.9553 31.3985C35.8149 32.6979 41.6972 33.2083 47.5795 31.5261C52.3087 30.253 56.3567 27.1223 58.8453 22.8135C57.1734 22.1992 55.6603 21.2029 54.4211 19.9002C53.1819 18.5975 52.2491 17.0228 51.6936 15.2957C50.8949 12.9121 50.8949 10.324 51.6936 7.94044C52.4863 5.54074 54.0196 3.46979 56.0623 2.03972C58.1049 0.609639 60.5464 -0.102077 63.0186 0.0118199C65.4908 0.125717 67.8599 1.05906 69.7688 2.67119C71.6778 4.28331 73.023 6.48688 73.6019 8.94977C74.9507 14.5533 72.5592 19.0778 66.1896 22.8715C69.5898 29.2407 74.6107 33.4404 81.785 34.5541C87.9506 35.5054 93.8102 34.0785 99.5451 31.8742C100.837 31.3869 102.107 30.8301 103.467 30.2616C101.665 26.1779 101.642 22.2218 103.965 18.4397C104.803 17.0516 105.922 15.8645 107.249 14.9596C108.575 14.0547 110.076 13.4531 111.65 13.1959C113.201 12.9236 114.791 12.9824 116.319 13.3688C117.848 13.7551 119.282 14.4607 120.531 15.4411C121.78 16.4215 122.818 17.6556 123.58 19.066C124.341 20.4764 124.81 22.0327 124.956 23.6372C125.11 25.4409 124.86 27.257 124.224 28.9466C123.588 30.6363 122.583 32.1547 121.286 33.3861C119.989 34.6174 118.435 35.5289 116.741 36.0511C115.047 36.5732 113.259 36.6921 111.514 36.3988L109.247 44.7518C106.98 52.9656 104.747 61.1755 102.549 69.3816C102.332 70.1787 102.221 71.0021 102.22 71.8295C102.22 75.4492 102.22 79.0572 102.22 82.7581H22.883C22.883 82.2012 22.883 81.6791 22.883 81.1571C23.3146 73.8857 22.3679 66.5976 20.0949 59.6944C17.8281 52.3391 15.9467 44.8214 13.9066 37.3849C13.8159 37.0716 13.7026 36.7584 13.5439 36.2827C12.1862 36.3987 10.8215 36.3987 9.46376 36.2827C7.18302 35.8935 5.07521 34.7932 3.4281 33.1322C1.78099 31.4711 0.674841 29.3301 0.260678 27.0016C0.198802 26.8083 0.126921 26.6186 0.0453364 26.4331L0 23.0339Z" fill="url(#paint0_linear_250_11)"/>
<path d="M102.062 88.0715V99H22.9175V88.0715H102.062Z" fill="url(#paint1_linear_250_11)"/>
<defs>
<linearGradient id="paint0_linear_250_11" x1="0" y1="41.3178" x2="124.978" y2="41.3178" gradientUnits="userSpaceOnUse">
<stop stop-color="#FFEB76"/>
<stop offset="0.17" stop-color="#AE7F25"/>
<stop offset="0.25" stop-color="#894E00"/>
<stop offset="0.51" stop-color="#C3912F"/>
<stop offset="0.54" stop-color="#CDA13C"/>
<stop offset="0.66" stop-color="#EFDB6C"/>
<stop offset="0.71" stop-color="#FDF17E"/>
<stop offset="0.89" stop-color="#9F6812"/>
<stop offset="1" stop-color="#E4C85C"/>
</linearGradient>
<linearGradient id="paint1_linear_250_11" x1="22.9175" y1="93.5357" x2="102.062" y2="93.5357" gradientUnits="userSpaceOnUse">
<stop stop-color="#FFEB76"/>
<stop offset="0.17" stop-color="#AE7F25"/>
<stop offset="0.25" stop-color="#894E00"/>
<stop offset="0.51" stop-color="#C3912F"/>
<stop offset="0.54" stop-color="#CDA13C"/>
<stop offset="0.66" stop-color="#EFDB6C"/>
<stop offset="0.71" stop-color="#FDF17E"/>
<stop offset="0.89" stop-color="#9F6812"/>
<stop offset="1" stop-color="#E4C85C"/>
</linearGradient>
</defs>
</svg>
