<?xml version="1.0" standalone="no"?>
<!DOCTYPE svg PUBLIC "-//W3C//DTD SVG 20010904//EN"
 "http://www.w3.org/TR/2001/REC-SVG-20010904/DTD/svg10.dtd">
<svg version="1.0" xmlns="http://www.w3.org/2000/svg"
 width="62" height="62" viewBox="0 0 512.000000 512.000000"
 preserveAspectRatio="xMidYMid meet">

<g transform="translate(0.000000,512.000000) scale(0.100000,-0.100000)"
fill="#fff" stroke="none">
<path d="M3062 5104 c-42 -29 -122 -134 -122 -160 0 -31 50 -84 80 -84 36 0
74 26 125 86 38 44 49 64 49 92 0 65 -78 104 -132 66z"/>
<path d="M1397 4939 c-80 -19 -146 -72 -178 -144 -17 -37 -19 -76 -19 -487 l0
-448 -122 -132 c-79 -86 -130 -152 -147 -188 -26 -55 -26 -56 -25 -310 1 -247
16 -443 48 -658 l14 -93 -74 -209 c-88 -249 -95 -291 -65 -390 19 -61 31 -81
79 -129 31 -31 67 -64 80 -72 20 -13 21 -17 11 -54 -26 -92 18 -241 93 -312
18 -17 344 -243 723 -503 380 -260 700 -482 713 -494 15 -15 26 -42 33 -85 5
-35 17 -76 25 -92 21 -41 75 -92 120 -115 37 -18 69 -19 711 -22 657 -2 672
-2 726 18 61 23 119 78 145 139 28 67 19 140 -47 381 -102 373 -106 398 -103
790 3 354 -3 442 -43 620 -77 345 -266 703 -515 973 -34 37 -117 111 -184 164
-402 321 -566 547 -567 781 -1 99 13 153 73 287 99 218 111 255 112 330 1 60
-4 80 -31 136 -39 79 -102 140 -181 177 -50 24 -69 27 -152 26 -64 0 -107 -5
-132 -16 -35 -16 -40 -15 -90 4 -65 25 -145 20 -208 -12 -24 -12 -110 -85
-191 -161 l-147 -139 -7 53 c-21 160 -101 280 -230 344 -82 41 -181 58 -248
42z m171 -196 c64 -30 116 -96 132 -166 5 -26 10 -90 10 -142 l0 -93 -167
-158 -168 -158 -3 348 c-2 322 -1 351 15 369 39 43 91 43 181 0z m814 -94 c36
-16 79 -101 85 -168 6 -67 -8 -120 -46 -172 -37 -51 -296 -297 -589 -562 -138
-125 -259 -241 -267 -257 -8 -16 -15 -40 -15 -54 0 -20 -6 -27 -27 -32 -64
-13 -157 -59 -202 -100 -72 -65 -103 -121 -168 -304 l-58 -165 -6 65 c-4 36
-10 171 -14 300 -7 212 -6 238 9 268 36 69 271 307 737 743 509 477 498 467
561 438z m353 -8 c48 -21 89 -67 105 -116 15 -46 -1 -103 -76 -261 -79 -170
-105 -265 -105 -389 1 -167 56 -318 175 -480 84 -113 266 -292 436 -427 304
-241 518 -565 632 -953 59 -205 62 -237 63 -640 1 -461 4 -486 114 -893 38
-140 59 -233 55 -248 -3 -13 -18 -33 -31 -44 -25 -19 -43 -20 -664 -20 -446 0
-645 3 -662 11 -31 14 -44 39 -56 113 -12 64 -34 107 -78 147 -15 15 -338 239
-718 499 -379 259 -702 485 -717 500 -37 40 -53 101 -39 154 5 23 93 277 194
564 192 545 203 569 277 620 60 40 93 43 493 40 377 -3 383 -3 425 -26 69 -37
431 -302 448 -328 45 -68 -91 -184 -216 -184 -68 0 -104 17 -242 108 -136 89
-163 95 -378 90 -144 -3 -170 -6 -205 -25 -45 -24 -85 -58 -108 -94 -18 -28
-93 -243 -108 -309 -54 -240 -10 -398 135 -480 60 -35 104 -38 134 -10 50 47
38 105 -30 146 -24 14 -51 37 -61 50 -25 34 -35 102 -26 175 13 92 85 313 113
346 l24 28 164 0 163 0 90 -61 c153 -104 227 -134 332 -134 117 0 239 54 313
137 76 86 99 154 80 236 -17 79 -54 121 -184 213 -19 13 -18 14 3 63 38 89 23
190 -37 255 -44 46 -498 366 -543 381 -27 10 -82 15 -159 15 l-118 0 -7 76
c-7 72 -3 175 12 279 5 41 16 53 195 222 104 98 205 201 224 229 72 104 92
244 54 366 -11 34 -20 66 -20 71 0 14 96 6 135 -12z m-769 -1228 c-2 -2 -58
-2 -126 -1 l-122 3 119 106 118 106 7 -105 c4 -58 6 -107 4 -109z m423 -194
c51 -31 412 -288 439 -312 12 -11 22 -32 22 -46 0 -54 -12 -53 -98 8 -169 120
-170 121 -637 121 -405 0 -444 -4 -537 -51 -58 -29 -140 -110 -170 -166 -14
-27 -97 -250 -184 -497 l-158 -449 -32 36 c-43 47 -58 103 -43 159 17 65 365
1042 385 1080 31 63 85 108 154 129 14 4 205 8 425 8 389 1 401 0 434 -20z"/>
<path d="M2865 1855 c-41 -40 -34 -83 24 -152 147 -176 308 -283 476 -318 106
-22 148 -20 181 9 61 52 20 146 -64 146 -58 0 -148 27 -226 67 -55 29 -97 63
-188 155 -99 101 -121 118 -147 118 -21 0 -41 -9 -56 -25z"/>
<path d="M2329 1511 c-16 -17 -29 -40 -29 -54 0 -45 34 -71 164 -126 218 -91
428 -232 513 -342 56 -74 72 -109 88 -192 15 -81 37 -107 89 -107 35 0 70 26
81 60 11 33 -14 153 -44 217 -78 162 -239 307 -491 441 -107 57 -289 132 -321
132 -11 0 -34 -13 -50 -29z"/>
<path d="M3280 4749 c-78 -23 -102 -44 -103 -94 -1 -29 5 -43 27 -61 15 -13
37 -24 49 -24 45 0 162 40 180 61 25 31 22 85 -8 114 -29 30 -56 31 -145 4z"/>
<path d="M3131 4334 c-28 -36 -27 -85 2 -112 12 -11 55 -30 96 -41 66 -18 77
-19 107 -6 32 13 54 46 54 80 0 32 -49 72 -109 88 -89 25 -125 22 -150 -9z"/>
</g>
</svg>
