<svg width="289" height="289" viewBox="0 0 88 99" fill="none" xmlns="http://www.w3.org/2000/svg">
<path d="M49.0506 0C50.7915 0.806596 51.17 2.20118 50.9581 3.98775C49.8302 13.4483 48.7554 22.9164 47.6654 32.3844C47.3702 34.8796 47.0674 37.3673 46.7798 39.8624C46.7635 40.1134 46.7635 40.3652 46.7798 40.6163H47.8546C54.1018 40.6163 60.344 40.6163 66.5811 40.6163C68.5415 40.6163 69.6921 41.747 69.4271 43.413C69.3404 43.8541 69.1846 44.2789 68.9654 44.6718C60.0538 62.1355 51.1372 79.5992 42.2155 97.0629C41.3375 98.7816 39.9447 99.3922 38.5368 98.7515C38.031 98.564 37.6049 98.2097 37.3295 97.7475C37.054 97.2853 36.9458 96.743 37.023 96.2111C37.2198 94.1004 37.4544 91.9896 37.6966 89.8789C38.4485 83.1899 39.2055 76.5035 39.9674 69.8195C40.3232 66.6233 40.6865 63.4271 41.065 60.0952H21.9828C19.0383 60.0952 17.7591 58.0523 19.061 55.429C27.9575 37.6336 36.8615 19.8408 45.7731 2.05041C46.3114 1.28281 46.9561 0.595009 47.6881 0.00753414L49.0506 0Z" fill="url(#paint0_linear_250_7)"/>
<path d="M37.6662 6.24927C37.5375 6.53572 37.4391 6.79956 37.3105 7.04832C35.5165 10.6516 33.7302 14.2549 31.8908 17.8356C31.6198 18.3271 31.2018 18.7223 30.6949 18.9663C20.711 23.5647 14.0424 31.0804 11.5597 41.7546C8.72121 53.8158 11.9382 64.4448 20.6807 73.3023C24.0037 76.6255 28.0303 79.1675 32.4661 80.7425C32.731 80.8405 32.996 80.9612 33.3366 81.0968L32.1406 91.6504C22.2149 88.9283 13.5707 82.808 7.72836 74.3658C1.88602 65.9236 -0.780356 55.7001 0.198175 45.4935C2.29487 22.6902 20.6883 8.23184 37.6662 6.24927Z" fill="url(#paint1_linear_250_7)"/>
<path d="M50.3599 92.7887C50.5415 92.3967 50.6702 92.1027 50.814 91.8238C52.6307 88.2657 54.4246 84.7001 56.2866 81.1722C56.5647 80.6497 56.9983 80.2258 57.528 79.9585C67.4286 75.33 73.9458 67.8068 76.4512 57.2306C79.0929 46.1569 76.4512 36.1687 69.0258 27.5223C65.3942 23.3281 60.7342 20.1416 55.4994 18.2728C55.2345 18.1748 54.9696 18.0542 54.6441 17.911L55.8703 7.35736C65.791 10.0948 74.4277 16.2223 80.2667 24.6658C86.1057 33.1094 88.7745 43.3302 87.8052 53.5369C85.7539 75.8954 67.8525 90.6177 50.3599 92.7887Z" fill="url(#paint2_linear_250_7)"/>
<defs>
<linearGradient id="paint0_linear_250_7" x1="18.5539" y1="49.4963" x2="69.4574" y2="49.4963" gradientUnits="userSpaceOnUse">
<stop stop-color="#FFEB76"/>
<stop offset="0.17" stop-color="#AE7F25"/>
<stop offset="0.25" stop-color="#894E00"/>
<stop offset="0.51" stop-color="#C3912F"/>
<stop offset="0.54" stop-color="#CDA13C"/>
<stop offset="0.66" stop-color="#EFDB6C"/>
<stop offset="0.71" stop-color="#FDF17E"/>
<stop offset="0.89" stop-color="#9F6812"/>
<stop offset="1" stop-color="#E4C85C"/>
</linearGradient>
<linearGradient id="paint1_linear_250_7" x1="0.00137364" y1="48.9461" x2="37.6662" y2="48.9461" gradientUnits="userSpaceOnUse">
<stop stop-color="#FFEB76"/>
<stop offset="0.17" stop-color="#AE7F25"/>
<stop offset="0.25" stop-color="#894E00"/>
<stop offset="0.51" stop-color="#C3912F"/>
<stop offset="0.54" stop-color="#CDA13C"/>
<stop offset="0.66" stop-color="#EFDB6C"/>
<stop offset="0.71" stop-color="#FDF17E"/>
<stop offset="0.89" stop-color="#9F6812"/>
<stop offset="1" stop-color="#E4C85C"/>
</linearGradient>
<linearGradient id="paint2_linear_250_7" x1="50.3599" y1="50.0768" x2="88.002" y2="50.0768" gradientUnits="userSpaceOnUse">
<stop stop-color="#FFEB76"/>
<stop offset="0.17" stop-color="#AE7F25"/>
<stop offset="0.25" stop-color="#894E00"/>
<stop offset="0.51" stop-color="#C3912F"/>
<stop offset="0.54" stop-color="#CDA13C"/>
<stop offset="0.66" stop-color="#EFDB6C"/>
<stop offset="0.71" stop-color="#FDF17E"/>
<stop offset="0.89" stop-color="#9F6812"/>
<stop offset="1" stop-color="#E4C85C"/>
</linearGradient>
</defs>
</svg>
