<svg width="53" height="62" viewBox="0 0 53 62" fill="none" xmlns="http://www.w3.org/2000/svg">
<path fill-rule="evenodd" clip-rule="evenodd" d="M31.3833 1.69928C27.1522 3.50643 26.8447 3.69233 26.6875 4.53641C26.587 5.07642 26.7924 5.59922 27.2606 5.99647C27.8534 6.49928 28.3727 6.41469 30.6609 5.44204C31.7671 4.97171 32.6987 4.6136 32.7309 4.64596C32.8639 4.78011 31.3631 7.43255 30.4896 8.60746C28.777 10.9105 26.5982 12.7643 24.1024 14.0419C19.476 16.41 14.3879 16.7494 9.38376 15.0239C8.12366 14.5893 7.6018 14.6142 7.0482 15.1356C6.42332 15.7241 6.41034 16.6461 7.01779 17.3016C7.59639 17.9261 10.6424 18.8173 13.3393 19.1513C15.114 19.371 18.0273 19.2322 19.9027 18.8386C26.6118 17.4303 32.0573 13.2114 35.1016 7.06317C35.6478 5.95975 35.7588 5.80548 35.8625 6.00399C35.9294 6.13184 36.3241 7.05444 36.7398 8.05424C37.6529 10.2508 37.9904 10.6598 38.8891 10.6598C39.2983 10.6598 39.5616 10.5835 39.7967 10.397C40.1488 10.1179 40.4596 9.50061 40.4596 9.0807C40.4596 8.75313 37.1382 0.856181 36.8734 0.554182C36.628 0.274239 35.9955 -0.00643187 35.6248 0.000112259C35.4739 0.0026572 33.5652 0.767351 31.3833 1.69928ZM34.336 14.2744C34.1108 14.3962 33.8275 14.6817 33.7067 14.9088C33.5003 15.2969 33.4871 15.8072 33.4871 23.3845C33.4871 30.9617 33.5003 31.472 33.7067 31.8601C33.9488 32.3153 34.5777 32.7159 35.0499 32.7159C35.5221 32.7159 36.1509 32.3153 36.3931 31.8601C36.5995 31.472 36.6127 30.9617 36.6127 23.3845C36.6127 15.8072 36.5995 15.2969 36.3931 14.9088C36.1509 14.4537 35.5221 14.053 35.0499 14.053C34.8825 14.053 34.5613 14.1526 34.336 14.2744ZM26.8768 20.3344C26.7123 20.359 26.4354 20.4813 26.2615 20.6062C25.6302 21.0594 25.6129 21.2187 25.6129 26.5959V31.5646L25.8929 31.9603C26.215 32.4155 26.7249 32.7159 27.1757 32.7159C27.6265 32.7159 28.1365 32.4155 28.4586 31.9603L28.7385 31.5646V26.5959C28.7385 21.2201 28.7207 21.055 28.0915 20.6112C27.7391 20.3625 27.3224 20.2676 26.8768 20.3344ZM10.6308 22.8614C10.457 22.97 10.2136 23.2276 10.0898 23.4338C9.88206 23.7795 9.86462 24.1111 9.86462 27.7081C9.86462 31.4677 9.87364 31.6198 10.1148 31.9496C10.7686 32.8438 11.8062 32.9304 12.5349 32.1517L12.9301 31.7292V27.6637V23.5984L12.4635 23.1278C12.0619 22.723 11.9233 22.6578 11.4717 22.6606C11.1828 22.6623 10.8045 22.7527 10.6308 22.8614ZM18.496 22.8949C17.7551 23.3502 17.7388 23.4537 17.7388 27.6966C17.7388 31.3345 17.7515 31.5568 17.9811 31.9313C18.2349 32.3452 18.8559 32.7159 19.2957 32.7159C19.645 32.7159 20.1398 32.4437 20.5037 32.0513L20.8043 31.7273L20.8391 27.857C20.8702 24.4103 20.8515 23.939 20.6684 23.5501C20.2761 22.7166 19.2765 22.4151 18.496 22.8949ZM46.6914 28.9564C46.383 29.0118 45.7879 29.2083 45.369 29.3929C44.6751 29.6989 44.1954 30.1406 39.9946 34.343C37.3273 37.0113 35.3582 38.8921 35.3254 38.8029C35.2942 38.7182 35.0567 38.3292 34.7979 37.9385C34.0541 36.8154 33.0806 36.1134 31.692 35.6983C31.1129 35.5253 29.8172 35.5032 20.2364 35.5032C8.38645 35.5032 8.59899 35.4917 6.6789 36.2392C5.25206 36.7946 4.35633 37.4688 2.19893 39.6106C0.589718 41.2083 0.158143 41.7061 0.0583633 42.0798C-0.208997 43.0807 0.472026 43.9864 1.49206 43.9864C1.82073 43.9864 2.18162 43.9018 2.35437 43.7842C2.51786 43.6731 3.51722 42.7311 4.57512 41.6909C6.10379 40.188 6.66027 39.7203 7.28635 39.4129C8.86094 38.6396 8.55283 38.6576 20.2032 38.6586C30.2778 38.6594 30.8058 38.6702 31.277 38.8859C32.8539 39.6078 33.004 41.8884 31.5392 42.8659L31.0406 43.1986L24.6601 43.2592C18.6476 43.3163 18.2603 43.333 17.943 43.5498C16.9625 44.2199 17.0684 45.6982 18.1334 46.2077C18.5114 46.3885 19.2016 46.4099 24.6092 46.408C31.2109 46.4057 31.7368 46.3624 32.8978 45.7254C33.6668 45.3035 34.2525 44.7329 40.7155 38.1088C43.642 35.1094 46.2135 32.5318 46.4299 32.3808C48.2698 31.0979 50.7036 33.2676 49.7197 35.3134C49.4033 35.9716 33.8163 51.6493 32.886 52.2453C32.5223 52.4782 31.9273 52.7956 31.5636 52.9505C29.9438 53.6404 30.5496 53.6062 19.2415 53.6452C13.4891 53.665 8.64744 53.7124 8.48214 53.7504C8.1459 53.8278 2.67967 59.2354 2.40233 59.765C1.81087 60.8944 2.7946 62.1915 4.07947 61.9764C4.52475 61.9019 4.83142 61.6372 7.09966 59.3691L9.62419 56.8447L19.7223 56.7996C30.9554 56.7493 30.5344 56.7787 32.6456 55.9021C34.8182 55.0001 35.0429 54.8003 43.7814 45.9967C52.2414 37.4739 52.4415 37.2488 52.8456 35.8062C53.0662 35.0186 53.0478 33.5496 52.8074 32.7512C52.3075 31.0913 50.8763 29.6353 49.2541 29.1365C48.5409 28.9173 47.3679 28.8348 46.6914 28.9564Z" fill="white"/>
</svg>
